<svg width="26" height="28" viewBox="0 0 26 28" fill="none" xmlns="http://www.w3.org/2000/svg">
<path fill-rule="evenodd" clip-rule="evenodd" d="M7.01289 2.27056C3.88265 3.47638 1.20501 4.52795 1.06255 4.60712C0.682305 4.81883 0.588989 5.19894 0.588989 6.5373C0.588989 7.96348 0.711269 8.40711 1.16162 8.61357C1.4596 8.75031 1.49059 8.81757 1.49059 9.32881C1.49059 10.0552 1.92933 10.5759 2.54129 10.5759C2.91906 10.5759 2.93811 10.5972 3.06997 11.1665C3.14514 11.4915 3.32771 11.9063 3.47569 12.0885L3.74459 12.4196V16.7066V20.9935L3.47569 21.3247C3.32771 21.5069 3.14514 21.9216 3.06997 22.2466C2.93687 22.8214 2.92222 22.8374 2.52179 22.841C1.83151 22.8472 1.49059 23.2832 1.49059 24.1599C1.49059 24.6213 1.45779 24.6889 1.2014 24.7555C0.68253 24.8905 0.431097 25.9532 0.716904 26.8027C0.964505 27.5384 0.43955 27.5083 12.986 27.5083C25.5324 27.5083 25.0075 27.5384 25.2551 26.8027C25.5409 25.9532 25.2894 24.8905 24.7706 24.7555C24.5142 24.6889 24.4814 24.6213 24.4814 24.1599C24.4814 23.2832 24.1405 22.8472 23.4502 22.841C23.0497 22.8374 23.0351 22.8214 22.902 22.2466C22.8268 21.9216 22.6443 21.5069 22.4963 21.3247L22.2274 20.9935V16.7066V12.4196L22.4963 12.0885C22.6443 11.9063 22.8268 11.4915 22.902 11.1665C23.0339 10.5972 23.0529 10.5759 23.4307 10.5759C23.7136 10.5759 23.9142 10.4809 24.152 10.2345C24.4295 9.94691 24.4814 9.79989 24.4814 9.30032V8.70745H24.8562C25.1133 8.70745 25.3168 8.61286 25.5042 8.40629C25.7463 8.13946 25.7819 7.97866 25.8169 6.99424C25.8697 5.50255 25.7735 4.89485 25.4496 4.67497C25.0734 4.41958 13.2545 0.0650234 12.9568 0.0720299C12.8178 0.0752996 10.1431 1.06462 7.01289 2.27056ZM18.9852 3.2315L24.8155 5.37935L24.8174 6.5763L24.8195 7.77325H13.2114H1.60329L1.60419 6.5763L1.60509 5.37935L7.26736 3.19892C10.3816 1.99976 12.9803 1.03321 13.0423 1.05107C13.1043 1.06894 15.7787 2.0502 18.9852 3.2315ZM12.2478 2.91621C10.8633 3.54108 10.8644 5.55849 12.2497 6.2533C13.152 6.70581 14.1161 6.3375 14.5696 5.36698C15.2842 3.83745 13.7634 2.23214 12.2478 2.91621ZM13.5777 4.00993C13.7003 4.12157 13.7749 4.35664 13.7749 4.63176C13.7749 5.13191 13.4756 5.43774 12.986 5.43774C12.4964 5.43774 12.1971 5.13191 12.1971 4.63176C12.1971 3.812 12.9751 3.46167 13.5777 4.00993ZM9.04148 4.62031V5.08742H9.49228H9.94308V4.62031V4.15321H9.49228H9.04148V4.62031ZM16.0289 4.62031V5.08742H16.4797H16.9305V4.62031V4.15321H16.4797H16.0289V4.62031ZM23.4671 9.11617V9.52488H12.986H2.50489V9.11617V8.70745H12.986H23.4671V9.11617ZM6.15422 10.897C6.0395 11.3942 6.04164 11.3933 5.04717 11.3933C4.16947 11.3933 4.10455 11.3764 4.04099 11.1305C3.89932 10.5825 3.91206 10.5759 5.09913 10.5759H6.22827L6.15422 10.897ZM8.37475 11.2165C8.45094 11.5689 8.60669 11.9448 8.72097 12.052C8.91594 12.2349 8.92879 12.5199 8.92879 16.6663C8.92879 20.7617 8.91391 21.1011 8.72649 21.2953C8.61525 21.4105 8.45939 21.8046 8.38027 22.1711L8.23647 22.8373H7.69889H7.16142L7.02427 22.2021C6.94887 21.8529 6.78861 21.4373 6.66825 21.2787C6.46054 21.0051 6.44939 20.7705 6.44939 16.6589C6.44939 12.5531 6.46054 12.3159 6.66442 12.1047C6.78264 11.9822 6.94279 11.5881 7.02044 11.2289L7.16142 10.5759H7.69889H8.23647L8.37475 11.2165ZM11.4003 10.9546C11.3427 11.1629 11.2955 11.3468 11.2955 11.3633C11.2955 11.3799 10.8644 11.3933 10.3375 11.3933C9.81066 11.3933 9.37958 11.3799 9.37958 11.3633C9.37958 11.3468 9.33236 11.1629 9.27477 10.9546L9.16996 10.5759H10.3375H11.5051L11.4003 10.9546ZM13.6545 11.2284C13.7321 11.5874 13.8923 11.9669 14.0105 12.0718C14.2152 12.2533 14.2257 12.4775 14.2257 16.6741C14.2257 20.8587 14.2146 21.0971 14.0106 21.3085C13.8924 21.4309 13.7323 21.8251 13.6546 22.1843L13.5136 22.8373H12.986H12.4583L12.3173 22.1843C12.2397 21.8251 12.0795 21.4309 11.9613 21.3085C11.7573 21.0971 11.7463 20.8587 11.7463 16.6741C11.7463 12.4775 11.7568 12.2533 11.9614 12.0718C12.0796 11.9669 12.2399 11.5874 12.3174 11.2284L12.4583 10.5759H12.986H13.5136L13.6545 11.2284ZM16.6972 10.9546C16.6396 11.1629 16.5924 11.3468 16.5924 11.3633C16.5924 11.3799 16.1613 11.3933 15.6344 11.3933C15.1076 11.3933 14.6765 11.3799 14.6765 11.3633C14.6765 11.3468 14.6293 11.1629 14.5717 10.9546L14.4669 10.5759H15.6344H16.802L16.6972 10.9546ZM18.9515 11.2289C19.0292 11.5881 19.1893 11.9822 19.3075 12.1047C19.5114 12.3159 19.5226 12.5531 19.5226 16.6589C19.5226 20.7705 19.5114 21.0051 19.3037 21.2787C19.1834 21.4373 19.0231 21.8529 18.9477 22.2021L18.8105 22.8373H18.2731H17.7355L17.5917 22.1711C17.5126 21.8046 17.3567 21.4105 17.2455 21.2953C17.0581 21.1011 17.0432 20.7617 17.0432 16.6663C17.0432 12.5199 17.056 12.2349 17.251 12.052C17.3653 11.9448 17.521 11.5689 17.5972 11.2165L17.7355 10.5759H18.2731H18.8105L18.9515 11.2289ZM22.0004 10.7218C21.9996 10.8022 21.9683 10.9861 21.931 11.1305C21.8674 11.3764 21.8025 11.3933 20.9248 11.3933C19.9303 11.3933 19.9325 11.3942 19.8177 10.897L19.7437 10.5759H20.8728C21.7019 10.5759 22.0015 10.6146 22.0004 10.7218ZM5.43509 12.853C5.43509 13.2422 5.41627 13.2617 5.04064 13.2617C4.66501 13.2617 4.64619 13.2422 4.64619 12.853C4.64619 12.4638 4.66501 12.4443 5.04064 12.4443C5.41627 12.4443 5.43509 12.4638 5.43509 12.853ZM10.732 12.853C10.732 13.2422 10.7132 13.2617 10.3375 13.2617C9.96191 13.2617 9.94308 13.2422 9.94308 12.853C9.94308 12.4638 9.96191 12.4443 10.3375 12.4443C10.7132 12.4443 10.732 12.4638 10.732 12.853ZM16.0289 12.853C16.0289 13.2422 16.0101 13.2617 15.6344 13.2617C15.2588 13.2617 15.24 13.2422 15.24 12.853C15.24 12.4638 15.2588 12.4443 15.6344 12.4443C16.0101 12.4443 16.0289 12.4638 16.0289 12.853ZM21.3258 12.853C21.3258 13.2422 21.307 13.2617 20.9313 13.2617C20.5557 13.2617 20.5369 13.2422 20.5369 12.853C20.5369 12.4638 20.5557 12.4443 20.9313 12.4443C21.307 12.4443 21.3258 12.4638 21.3258 12.853ZM5.43509 17.5824V20.9689H5.04064H4.64619V17.5824V14.1959H5.04064H5.43509V17.5824ZM10.732 17.5824V20.9689H10.3375H9.94308V17.5824V14.1959H10.3375H10.732V17.5824ZM16.0289 17.5824V20.9689H15.6344H15.24V17.5824V14.1959H15.6344H16.0289V17.5824ZM21.3258 17.5824V20.9689H20.9313H20.5369V17.5824V14.1959H20.9313H21.3258V17.5824ZM6.03273 22.1074C6.05877 22.1555 6.11343 22.3396 6.15422 22.5161L6.22827 22.8373H5.09913C3.91206 22.8373 3.89932 22.8306 4.04099 22.2826C4.10455 22.0368 4.16947 22.0198 5.04717 22.0198C5.56311 22.0198 6.00659 22.0593 6.03273 22.1074ZM11.3844 22.3994L11.4799 22.7789L10.8765 22.814C10.5446 22.8334 10.0304 22.8334 9.73403 22.814L9.1951 22.7789L9.29055 22.3994L9.38601 22.0198H10.3375H11.2891L11.3844 22.3994ZM16.6813 22.3994L16.7768 22.7789L16.1734 22.814C15.8415 22.8334 15.3273 22.8334 15.0309 22.814L14.492 22.7789L14.5875 22.3994L14.6829 22.0198H15.6344H16.586L16.6813 22.3994ZM21.931 22.2826C22.0726 22.8306 22.0599 22.8373 20.8728 22.8373H19.7437L19.8177 22.5161C19.9325 22.0189 19.9303 22.0198 20.9248 22.0198C21.8025 22.0198 21.8674 22.0368 21.931 22.2826ZM23.4671 24.1802V24.5889H12.986H2.50489V24.1802V23.7715H12.986H23.4671V24.1802ZM24.3687 26.0486V26.4573H12.986H1.60329V26.0486V25.6399H12.986H24.3687V26.0486Z" fill="white"/>
</svg>
