<svg width="20" height="18" viewBox="0 0 20 18" fill="none" xmlns="http://www.w3.org/2000/svg">
<path fill-rule="evenodd" clip-rule="evenodd" d="M8.05231 0.00837213C7.21264 0.0223422 7.1268 0.0273895 6.99917 0.0703137C6.51117 0.234507 6.20323 0.486961 5.94588 0.933801C5.89062 1.02976 5.86151 1.13854 5.86146 1.24928L5.86115 2.03789L5.8611 2.18152C5.86092 2.63103 6.22527 2.99552 6.67477 2.99552H6.72827C7.14935 2.99552 7.49171 2.6561 7.49536 2.23505C7.49902 1.81399 7.84139 1.47458 8.26247 1.47458H9.9937H11.731C12.1477 1.47458 12.4855 1.81234 12.4855 2.22899V2.92575C12.4855 2.95938 12.5089 2.98844 12.5418 2.99552C12.5728 3.00216 12.9464 3.00489 13.372 3.00158C13.7996 2.99823 14.1438 2.64936 14.1414 2.22173L14.1404 2.04992L14.1366 1.36454C14.1356 1.19394 14.0908 1.02646 14.0063 0.878236C13.8414 0.588784 13.5485 0.312312 13.2694 0.182638C12.8985 0.0102873 12.9413 0.0134419 10.8397 0.00273903C9.80944 -0.00251102 8.55511 1.26098e-05 8.05231 0.00837213ZM3.63168 3.77065C1.24792 3.78404 1.22618 3.78456 1.10195 3.83232C0.684361 3.99287 0.310999 4.30023 0.147699 4.61785C-0.00252698 4.9101 2.68528e-06 4.87526 2.68528e-06 6.64577V8.14158C2.68528e-06 8.22474 0.0197369 8.30671 0.0575835 8.38076C0.131745 8.52583 0.270851 8.65545 0.413262 8.71219C0.714742 8.83231 2.09405 9.25533 5.97348 10.4175C7.94225 11.0073 8.2928 11.1062 8.30727 11.0756C8.31664 11.0558 8.32508 10.5808 8.32606 10.02C8.32703 9.45661 8.78402 9.0004 9.34741 9.0004H9.99337H10.7633C11.2585 9.0004 11.6604 9.40088 11.6622 9.89607C11.664 10.3887 11.6725 10.8644 11.681 10.9531C11.689 11.0367 11.7714 11.092 11.8518 11.0679L14.6144 10.2396C18.4885 9.07805 19.495 8.76602 19.6778 8.66999C19.8088 8.60115 19.9491 8.39349 19.9756 8.22919C19.9881 8.15145 19.999 7.40342 19.9998 6.5669C20.001 5.12805 19.9985 5.03806 19.9528 4.8995C19.8816 4.6836 19.8571 4.63412 19.734 4.45598C19.5048 4.1245 19.0601 3.84224 18.6913 3.79422C18.501 3.76946 7.04022 3.7515 3.63168 3.77065ZM0.844731 13.2647L0.854999 16.705C0.855378 16.8318 0.886653 16.9565 0.946117 17.0685C1.11741 17.391 1.35126 17.623 1.67809 17.7946C1.88695 17.9044 2.13132 17.9629 2.44199 17.9777C2.84198 17.9967 12.6463 18.0082 15.4033 17.9929L17.6388 17.9805C17.7673 17.9798 17.8947 17.958 18.016 17.9159C18.512 17.7441 18.8384 17.4694 19.0606 17.0367C19.1178 16.9253 19.1477 16.8018 19.1477 16.6766V13.2468C19.1477 10.36 19.1414 9.62861 19.1164 9.63699C19.0992 9.64276 17.4212 10.1462 15.3875 10.7556L11.9015 11.8003C11.7726 11.839 11.6781 11.9493 11.6597 12.0826C11.6051 12.4773 11.4754 12.7377 11.2026 13.0005C10.999 13.1966 10.8148 13.3112 10.5583 13.4013C10.3158 13.4864 9.92177 13.5086 9.63359 13.4534C8.90678 13.3142 8.40731 12.7656 8.31371 12.0036C8.29661 11.8645 8.29585 11.8634 8.19319 11.8297C8.05877 11.7856 0.856928 9.63131 0.843854 9.63131C0.838369 9.63131 0.838745 11.2663 0.844731 13.2647ZM9.17938 10.9726V12.0308C9.17938 12.1278 9.20435 12.2232 9.25189 12.3077C9.33819 12.4611 9.46866 12.5872 9.61282 12.6564C9.70332 12.6999 9.75601 12.7069 9.99337 12.707C10.2136 12.707 10.2881 12.6984 10.3645 12.6643C10.5045 12.6017 10.6584 12.4519 10.751 12.2878C10.8044 12.1933 10.8324 12.0866 10.8324 11.9781L10.8324 10.9551V10.593C10.8324 10.1365 10.4624 9.76651 10.0059 9.76651C9.54942 9.76651 9.17938 10.1366 9.17938 10.593V10.9726ZM10.1447 11.6565C10.4031 11.7621 10.4828 12.02 10.3175 12.2151C10.2327 12.3151 10.1341 12.3577 9.98791 12.3577C9.72363 12.3577 9.53283 12.1262 9.60323 11.891C9.63324 11.7907 9.72884 11.6995 9.85562 11.6501C9.97031 11.6054 10.0224 11.6065 10.1447 11.6565Z" fill="url(#paint0_linear_360_219)"/>
<defs>
<linearGradient id="paint0_linear_360_219" x1="0.76923" y1="9.04456e-06" x2="25.9486" y2="3.08699" gradientUnits="userSpaceOnUse">
<stop stop-color="#55ADFF"/>
<stop offset="1" stop-color="#A528DD"/>
</linearGradient>
</defs>
</svg>
