<svg width="31" height="25" viewBox="0 0 31 25" fill="none" xmlns="http://www.w3.org/2000/svg">
<path fill-rule="evenodd" clip-rule="evenodd" d="M1.99755 0.0725498C1.32827 0.256879 0.620934 0.815943 0.311414 1.40525C-0.0154412 2.02762 -0.000371572 1.70112 0.000268644 8.15791C0.00090886 14.506 -0.0106152 14.2252 0.273395 14.8077C0.452852 15.1758 0.917649 15.6621 1.27026 15.8507C1.68468 16.0724 2.06068 16.1565 2.63693 16.1565H3.13585L3.19785 16.4407C3.39967 17.3652 4.11267 18.122 5.00036 18.3541C5.25236 18.4199 6.03849 18.4297 11.0685 18.4297C17.4875 18.4297 17.0718 18.452 17.2179 18.101C17.3028 17.8971 17.2483 17.6606 17.0815 17.5091C16.9836 17.4202 16.7568 17.4157 11.1121 17.3919C5.60467 17.3688 5.233 17.3618 5.05655 17.2787C4.76973 17.1437 4.45607 16.8254 4.3267 16.5383L4.21033 16.28L4.19659 13.2532L4.1828 10.2263H12.7549C20.0519 10.2263 21.3519 10.2159 21.4945 10.1561C21.6713 10.082 21.8164 9.86402 21.8161 9.67287C21.8158 9.47109 21.6404 9.24852 21.4372 9.19188C21.3091 9.1562 18.5546 9.1396 12.7178 9.13945L4.18571 9.13915V7.75545V6.37175H15.3649H26.544V7.75081V9.12986L25.8259 9.14686L25.1076 9.16386L24.964 9.32526C24.7654 9.54843 24.7654 9.81707 24.964 10.0402L25.1076 10.2016L25.8259 10.2186L26.544 10.2356V11.1851V12.1345L26.1008 12.0223C25.4142 11.8487 24.8633 11.7914 24.1801 11.8228C23.1876 11.8683 22.3532 12.0862 21.4944 12.524C19.6803 13.449 18.4215 15.1091 17.9906 17.1449C17.8647 17.7398 17.8668 19.0741 17.9947 19.6899C18.5223 22.2312 20.4107 24.2073 22.9097 24.8332C23.6144 25.0097 24.7797 25.053 25.5148 24.93C26.8962 24.6987 28.1288 24.0617 29.109 23.0724C29.995 22.1781 30.5484 21.1848 30.8678 19.9152C30.9868 19.4418 30.9991 19.3062 31 18.4544C31.0007 17.7302 30.9805 17.4203 30.9115 17.0991C30.5298 15.3221 29.5429 13.8753 28.0338 12.8802L27.5782 12.5799V8.46796C27.5782 4.50237 27.5747 4.34488 27.4803 4.04194C27.2251 3.22348 26.6293 2.60497 25.8691 2.36935C25.6286 2.29482 25.4104 2.27007 24.994 2.27007H24.4392L24.3816 1.97633C24.2128 1.11527 23.5322 0.348944 22.7099 0.0938983C22.4029 -0.00128058 22.203 -0.00305963 12.3187 0.00123973C4.00802 0.00489665 2.19784 0.0173994 1.99755 0.0725498ZM22.5942 1.18564C22.8088 1.29322 22.9428 1.40337 23.0602 1.56863C23.2493 1.83479 23.3429 2.03503 23.3429 2.17355C23.3429 2.26893 23.238 2.27007 14.3922 2.27066C4.67005 2.2713 5.23221 2.25559 4.64784 2.54251C4.06037 2.83091 3.52835 3.42966 3.28714 4.07382L3.17613 4.37033L3.15151 9.73217L3.12689 15.094L2.60979 15.0921C2.17587 15.0905 2.05571 15.0723 1.86276 14.9785C1.55319 14.828 1.26676 14.5042 1.13823 14.1594L1.0323 13.8753L1.0454 8.08502L1.0585 2.29477L1.18605 2.02298C1.35108 1.67132 1.5326 1.45941 1.80706 1.29802C2.27506 1.02281 1.61706 1.03911 12.3406 1.03679L22.293 1.03462L22.5942 1.18564ZM25.7424 3.44409C26.0252 3.59565 26.2572 3.83849 26.3963 4.12843C26.4863 4.31602 26.5172 4.47855 26.5339 4.85215L26.5555 5.33398H15.3706H4.18571V5.04646C4.18571 4.46481 4.45455 3.92468 4.89595 3.61947C5.36981 3.29178 4.59323 3.31333 15.5619 3.32341L25.5345 3.33255L25.7424 3.44409ZM6.17363 12.2979C6.08872 12.3498 5.95576 12.4759 5.87814 12.578L5.737 12.7637V14.0066C5.737 15.239 5.73798 15.251 5.85569 15.4233C5.92094 15.5189 6.05228 15.6507 6.14758 15.7162L6.32073 15.8353H8.68825H11.0557L11.2408 15.7198C11.3426 15.6563 11.4812 15.5098 11.5486 15.3942C11.6701 15.1863 11.6713 15.1722 11.6713 14.0092C11.6713 12.6709 11.6509 12.5871 11.263 12.3347L11.0606 12.2031L8.69431 12.2033C6.45148 12.2034 6.31989 12.2084 6.17363 12.2979ZM25.7314 13.014C27.502 13.4479 28.9578 14.7177 29.6174 16.4036C30.1705 17.8173 30.0954 19.5083 29.4192 20.8652C28.7019 22.3049 27.3795 23.3857 25.8299 23.799C25.3942 23.9152 25.2409 23.9308 24.5003 23.9351C23.8525 23.9387 23.5813 23.9199 23.3016 23.8518C21.1103 23.3177 19.5382 21.7483 19.0485 19.6057C18.9137 19.0157 18.9019 17.8535 19.0253 17.3067C19.5496 14.9821 21.3147 13.3027 23.6384 12.9174C24.2274 12.8197 25.1038 12.8602 25.7314 13.014ZM10.6371 14.0315V14.8222H8.69184H6.74657V14.0315V13.2408H8.69184H10.6371V14.0315ZM24.2449 14.1039C24.0688 14.1807 23.9339 14.401 23.9339 14.6118C23.9339 14.7386 23.9064 14.7617 23.6529 14.8482C23.4984 14.9009 23.2439 15.0386 23.0874 15.1542C22.6196 15.4997 22.36 15.9271 22.2569 16.5212C22.0528 17.6972 23.1089 18.9201 24.3312 18.9233C24.6766 18.9242 25.049 19.0564 25.2697 19.2565C25.5357 19.4977 25.6242 19.6861 25.6242 20.0111C25.6242 20.335 25.5357 20.5245 25.2732 20.7624C24.8292 21.165 24.0964 21.1769 23.6559 20.7889C23.4475 20.6052 23.2937 20.3157 23.2937 20.107C23.2937 19.737 22.9645 19.4163 22.6616 19.4914C22.4757 19.5375 22.2658 19.7543 22.232 19.9351C22.1932 20.1427 22.3305 20.713 22.4903 21.0076C22.7275 21.4449 23.2649 21.8594 23.8477 22.0547C23.911 22.0759 23.9339 22.1371 23.9339 22.2845C23.9339 22.7936 24.4923 23.0548 24.8237 22.7008C24.9035 22.6156 24.9495 22.4954 24.967 22.3269C24.9927 22.0787 24.9928 22.0785 25.2474 21.9888C25.7678 21.8055 26.2554 21.3556 26.4977 20.8354C27.1066 19.5277 26.1451 18.0183 24.6314 17.9054C24.1179 17.8671 23.8421 17.7711 23.6168 17.552C23.377 17.3189 23.2937 17.1203 23.2937 16.7814C23.2937 16.0726 24.0952 15.5836 24.8735 15.8175C25.2746 15.9382 25.5795 16.3227 25.6417 16.7864C25.659 16.9156 25.704 17.0691 25.7416 17.1275C25.9035 17.3785 26.3302 17.3981 26.5485 17.1646C26.6509 17.0549 26.6664 16.9926 26.6614 16.7082C26.6502 16.0685 26.3086 15.4839 25.7098 15.0793C25.5369 14.9626 25.2993 14.8412 25.1818 14.8097C24.9803 14.7555 24.9681 14.7423 24.9681 14.5759C24.9681 14.3666 24.8676 14.2068 24.6721 14.1054C24.4996 14.0159 24.4469 14.0157 24.2449 14.1039Z" fill="url(#paint0_linear_128_44)"/>
<defs>
<linearGradient id="paint0_linear_128_44" x1="0.685841" y1="13.5118" x2="33.4291" y2="13.8608" gradientUnits="userSpaceOnUse">
<stop stop-color="#55ADFF"/>
<stop offset="1" stop-color="#9543E4"/>
</linearGradient>
</defs>
</svg>
