<svg width="306" height="222" viewBox="0 0 306 222" fill="none" xmlns="http://www.w3.org/2000/svg">
<path d="M217.42 10.2564C163.014 46.7478 116.625 29.6425 30.1478 5.69493C-16.2408 5.69493 -4.78683 58.7217 35.3021 78.1078C75.391 97.4939 74.2457 202.977 122.352 219.512C170.459 236.047 228.874 167.056 284.426 104.336C339.978 41.6162 271.827 -26.2351 217.42 10.2564Z" fill="#2E273E" fill-opacity="0.88"/>
<path d="M207.556 145.965C206.415 146.652 205.215 147.615 204.209 148.689C203.408 149.544 202.694 150.508 202.245 151.495C201.758 150.017 201.128 148.791 200.343 147.859C199.552 146.921 198.609 146.285 197.52 145.993C198.546 145.255 199.62 144.326 200.527 143.304C201.344 142.385 202.059 141.351 202.454 140.287C203.823 143.195 204.996 144.596 206.047 145.308C206.608 145.687 207.115 145.858 207.556 145.965Z" stroke="#747CF3" stroke-width="1.03028"/>
<path d="M137.645 40.4845C136.504 41.1712 135.303 42.1341 134.297 43.2084C133.497 44.0631 132.783 45.0277 132.333 46.0144C131.846 44.5363 131.216 43.3108 130.431 42.3787C129.641 41.4404 128.697 40.8048 127.608 40.5122C128.634 39.7745 129.709 38.8452 130.616 37.8239C131.432 36.9041 132.147 35.8707 132.543 34.8066C133.912 37.7146 135.084 39.1151 136.136 39.8273C136.696 40.2069 137.204 40.3779 137.645 40.4845Z" stroke="white" stroke-width="1.03028"/>
<path d="M222.679 39.2381C208.243 24.8025 198.62 36.9826 195.612 44.8771C193.357 53.8994 202.379 61.7938 206.89 62.9216C211.401 64.0494 240.724 57.2827 222.679 39.2381Z" stroke="white" stroke-width="2.25557" stroke-linecap="round"/>
<path d="M100.225 98.4471C90.865 99.3832 70.1788 100.694 62.3162 98.4471" stroke="#747CF3" stroke-width="2.80808" stroke-linecap="round"/>
<path d="M112.861 111.083C89.9283 126.528 49.3984 156.294 70.7398 151.801C96.0125 141.972 117.073 130.74 104.437 143.376C91.8004 156.013 59.5075 192.518 79.164 185.498C94.8893 179.881 110.053 164.437 115.669 157.417C118.477 154.609 124.374 150.958 125.497 158.821C118.477 172.861 103.033 191.114 115.669 185.498C125.778 181.005 135.794 165.841 139.538 158.821" stroke="white" stroke-width="2.80808" stroke-linecap="round"/>
<path d="M162.002 163.033C162.938 168.649 164.249 181.005 162.002 185.498" stroke="#747CF3" stroke-width="2.80808" stroke-linecap="round"/>
<path d="M173.235 161.629C173.703 170.053 175.201 187.744 177.447 191.114" stroke="#747CF3" stroke-width="2.80808" stroke-linecap="round"/>
<path d="M193.104 26.6313C195.173 25.1808 197.258 23.7651 199.346 22.3999C207.447 17.1044 215.55 12.599 222.916 9.76727C230.325 6.91873 236.774 5.84806 241.676 7.13811C248.169 8.84671 252.475 11.3739 255.254 14.2948C258.02 17.2022 259.359 20.5896 259.768 24.1913C260.599 31.4979 257.599 39.6075 254.791 45.9271C253.449 48.9465 249.663 55.0748 244.086 63.0455C238.534 70.9792 231.272 80.648 223.045 90.7136C206.858 110.517 187.023 131.746 169.183 144.359C137.355 112.516 122.146 96.5067 117.582 91.4609C122.708 86.1253 130.056 78.6708 136.504 72.542C137.327 71.7603 138.133 71.0013 138.917 70.272L139.924 71.3326L189.548 123.618L190.482 124.603L191.498 123.703C201.873 114.506 217.19 98.1333 230.481 80.3971C237.129 71.5254 243.289 62.2886 248.074 53.4162C252.851 44.5602 256.303 35.9873 257.461 28.4584L257.469 28.4057L257.474 28.3525C257.976 21.8227 256.257 17.1155 253.024 13.9533C249.835 10.8346 245.372 9.4161 240.754 9.00544C236.522 8.62913 229.19 8.62808 223.277 10.9026C216.731 13.4204 205.973 18.695 193.104 26.6313ZM140.1 69.2428L139.727 69.5222C141.887 67.5321 143.854 65.7955 145.488 64.4655C145.94 64.0975 146.362 63.765 146.75 63.4697C146.637 63.5901 146.519 63.7133 146.396 63.8393C144.549 65.7318 141.945 67.8591 140.1 69.2428ZM149.272 61.8861C149.271 61.8872 149.258 61.891 149.234 61.8942C149.261 61.8866 149.272 61.885 149.272 61.8861Z" stroke="white" stroke-width="2.80808" stroke-linecap="round"/>
<circle cx="212.03" cy="128.785" r="1.83978" stroke="white" stroke-width="1.22652"/>
<circle cx="88.1512" cy="63.7789" r="3.0663" stroke="#7479F1" stroke-width="1.22652"/>
<path d="M137.825 70.5249L189.952 125.718L170.941 144.116L116.974 90.7625L137.825 70.5249Z" fill="#757AF2" fill-opacity="0.34"/>
</svg>
