<svg width="299" height="223" viewBox="0 0 299 223" fill="none" xmlns="http://www.w3.org/2000/svg">
<path d="M115.498 39.0007C80.2442 15.0459 53.7282 42.5788 44.877 59.3397C27.6484 79.6786 53.3516 110.752 66.3459 173.464C79.3403 236.176 173.126 234.481 197.984 189.848C222.843 145.215 277.08 157.645 295.159 122.616C313.238 87.5883 262.956 50.8651 238.662 77.4188C214.368 103.972 159.566 68.9442 115.498 39.0007Z" fill="#2E273E" fill-opacity="0.88"/>
<path d="M131.586 155.831C146.956 163.059 151.054 150.812 151.182 143.785C150.403 136.087 141.115 132.452 137.266 132.842C133.417 133.231 112.375 146.796 131.586 155.831Z" stroke="white" stroke-width="1.20391" stroke-linecap="round"/>
<path d="M193.261 105.462L132.779 74.8782L143.18 53.6736L204.65 82.1558L193.261 105.462Z" fill="#757AF2" fill-opacity="0.34"/>
<path d="M180.249 0.243317C180.977 4.06254 180.686 12.0284 173.702 13.3378C166.718 14.6473 165.336 24.4318 165.518 29.1603C165.882 30.4334 165.736 33.7434 162.244 36.7988C158.753 39.8542 160.79 46.4378 162.244 49.3477" stroke="white" stroke-width="1.20391"/>
<path d="M212.986 15.5203C213.713 19.3395 213.422 27.3053 206.438 28.6148C199.455 29.9242 198.072 39.7087 198.254 44.4373C198.618 45.7103 198.473 49.0203 194.981 52.0757C191.489 55.1311 193.526 61.7147 194.981 64.6246" stroke="white" stroke-width="1.20391"/>
<path d="M200.982 0.243317C201.709 4.06254 201.418 12.0284 194.435 13.3378C187.451 14.6473 186.069 24.4318 186.25 29.1603C186.614 30.4334 186.469 33.7434 182.977 36.7988C179.485 39.8542 181.522 46.4378 182.977 49.3477" stroke="white" stroke-width="1.20391"/>
<path d="M60.8896 111.895C65.3258 101.121 77.0502 85.1826 88.4578 107.617C91.3097 104.29 96.5381 100.963 103.193 107.142M1 152.297C2.90126 138.513 22.4842 124.349 34.272 145.643C40.9264 125.204 78.0009 127.581 68.4946 157.525" stroke="white" stroke-width="1.69491" stroke-linecap="round"/>
<path d="M205.056 164.301C206.957 150.516 226.54 136.352 238.328 157.646C250.886 149.739 280.034 154.167 270.528 184.112" stroke="white" stroke-width="1.69491" stroke-linecap="round"/>
<path d="M69.9209 144.692C74.8325 141.682 85.6063 138.418 89.4088 149.445" stroke="white" stroke-width="1.69491" stroke-linecap="round"/>
<path fill-rule="evenodd" clip-rule="evenodd" d="M186.525 114.132C187.195 112.438 188.341 110.346 189.422 108.556C189.869 107.815 190.304 107.127 190.691 106.539L188.558 105.467L133.191 77.6392C121.418 99.2003 100.315 151.261 105.378 177.149C105.709 178.352 106.118 179.436 106.593 180.409C105.787 179.867 105.442 179.848 105.121 179.831C104.628 179.805 104.194 179.781 102.239 177.864C100.72 172.438 100.858 166.333 101.215 161.422C102.108 149.11 121.151 83.6281 144.165 51.3559C183.946 70.0654 201.66 79.0495 205.545 81.2029C202.651 87.7291 198.042 97.74 194.05 105.572C193.915 105.837 193.781 106.1 193.647 106.359C191.723 110.102 189.964 113.281 188.639 115.242C188.475 115.485 188.318 115.71 188.167 115.914C187.468 116.864 186.925 117.382 186.589 117.342C185.81 117.25 185.797 116.327 186.208 115.016C186.296 114.738 186.403 114.441 186.525 114.132ZM143.604 180.817C150.039 174.687 156.507 166.507 162.421 157.937C170.704 145.932 177.9 133.161 182.392 124.183C175.152 136.645 167.527 147.563 160.509 156.531C151.832 167.618 144.082 175.724 139.129 180.082C140.984 180.155 142.53 180.378 143.604 180.817ZM134.256 75.5197L133.128 74.9527C136.89 67.3699 140.864 60.3321 144.963 54.3533C178.91 70.3357 196.271 78.9992 202.479 82.2525C199.816 88.1939 196.127 96.1549 192.76 102.867C192.481 103.424 192.204 103.971 191.931 104.507L191.756 104.419L134.256 75.5197Z" fill="white"/>
<path d="M43.7783 182.242C53.7599 174.795 76.0997 166.271 85.606 191.748" stroke="white" stroke-width="1.69491" stroke-linecap="round"/>
<path d="M82.2783 183.192C87.0315 178.598 99.0094 172.165 108.896 183.192C108.896 168.933 129.81 168.458 134.563 179.39" stroke="white" stroke-width="1.69491" stroke-linecap="round"/>
<path d="M122.681 189.371C128.86 182.717 143.594 173.211 153.101 188.421C155.002 181.766 165.934 179.39 168.311 181.766" stroke="white" stroke-width="1.69491" stroke-linecap="round"/>
<path d="M193.072 121.971C193.643 122.542 194.955 123.597 195.64 123.255" stroke="white" stroke-width="0.504175" stroke-linecap="round"/>
<path d="M197.78 149.791C196.41 148.764 186.652 150.219 181.944 151.075C181.373 149.791 180.06 146.11 179.376 141.659C176.808 142.515 160.972 143.371 160.972 133.955C160.972 126.422 174.382 122.827 181.088 121.971L181.944 124.539L176.38 130.531L202.916 127.107L196.496 123.255L198.636 120.259C204.913 119.974 218.067 120.944 220.463 127.107C222.86 133.27 209.763 137.665 202.916 139.091C201.774 143.086 199.149 150.818 197.78 149.791Z" fill="#7479F1" stroke="#747CF3" stroke-width="0.719037"/>
<path d="M187.936 128.819V127.107C187.365 126.394 186.138 124.71 185.796 123.683C185.582 123.042 185.135 122.923 184.726 122.994C184.485 123.108 184.264 123.195 184.084 123.255C184.245 123.148 184.478 123.036 184.726 122.994C185.631 122.566 186.809 121.769 187.08 120.687C187.508 118.975 186.224 116.835 188.364 116.835C190.504 116.835 193.928 115.979 193.5 117.691C193.158 119.061 193.072 121.4 193.072 122.399C193.072 123.54 192.815 125.909 191.788 126.251V128.409L187.936 128.819Z" fill="white"/>
<path d="M182.372 121.115C182.943 121.258 183.913 120.773 183.228 117.691C182.543 114.609 184.94 112.698 186.224 112.127" stroke="white" stroke-width="0.504175" stroke-linecap="round"/>
<path d="M187.936 112.555L185.368 115.551" stroke="white" stroke-width="0.504175" stroke-linecap="round"/>
<path d="M189.648 113.839L187.08 115.979" stroke="white" stroke-width="0.504175" stroke-linecap="round"/>
<path d="M190.076 115.551L187.936 116.835" stroke="white" stroke-width="0.504175" stroke-linecap="round"/>
<path d="M190.932 114.695C192.073 114.981 194.356 115.722 194.356 116.407" stroke="white" stroke-width="0.504175" stroke-linecap="round"/>
<path d="M190.854 117.859C191.807 118.132 193.797 118.84 194.124 119.494" stroke="white" stroke-width="0.481565" stroke-linecap="round"/>
<path d="M191.787 112.127C193.214 111.985 196.153 112.555 196.495 115.979C196.837 119.403 197.779 119.974 198.207 119.831" stroke="white" stroke-width="0.504175" stroke-linecap="round"/>
<path d="M181.516 151.503C177.236 166.198 168.847 198.84 169.532 211.851C173.64 211.851 175.238 211.851 175.524 211.851C181.23 197.584 192.558 168.195 192.216 164.771" stroke="white" stroke-width="1.08407" stroke-linecap="round"/>
<path d="M190.076 172.475C194.213 185.172 202.488 210.824 202.488 211.851C204.885 211.851 206.911 211.28 207.624 210.995C206.055 192.02 202.06 153.386 198.636 150.647" stroke="white" stroke-width="1.08407" stroke-linecap="round"/>
<path d="M162.684 216.131C161.258 214.134 158.832 210.481 162.256 213.563C163.112 211.423 163.112 209.283 163.968 215.275M172.1 216.987C171.244 216.987 169.19 216.644 167.82 215.275C166.108 213.563 163.54 216.987 161.828 216.987C160.116 216.987 155.836 217.415 158.404 219.983C160.459 222.037 163.826 221.695 165.252 221.267C166.108 220.982 167.992 220.582 168.676 221.267C169.532 222.123 172.956 221.695 172.956 220.411C172.956 219.127 173.384 216.559 172.1 216.987Z" stroke="white" stroke-width="1.08407"/>
<path d="M214.112 216.131C215.538 214.134 217.964 210.481 214.54 213.563C213.684 211.423 213.684 209.283 212.828 215.275M204.696 216.987C205.552 216.987 207.606 216.644 208.976 215.275C210.688 213.563 213.256 216.987 214.968 216.987C216.68 216.987 220.96 217.415 218.392 219.983C216.337 222.037 212.97 221.695 211.544 221.267C210.688 220.982 208.804 220.582 208.12 221.267C207.264 222.123 203.84 221.695 203.84 220.411C203.84 219.127 203.412 216.559 204.696 216.987Z" stroke="white" stroke-width="1.08407"/>
</svg>
