<svg width="254" height="310" viewBox="0 0 254 310" fill="none" xmlns="http://www.w3.org/2000/svg">
<g clip-path="url(#clip0_360_374)">
<path d="M96.3726 260.922C95.5527 257.734 93.5984 254.954 90.8757 253.102C88.1531 251.251 84.849 250.456 81.5823 250.866C78.3156 251.276 75.3105 252.863 73.1299 255.33C70.9492 257.797 69.7427 260.974 69.7363 264.266C69.7467 265.41 69.9 266.548 70.1926 267.654C70.9406 270.558 72.6307 273.132 74.998 274.973C77.3653 276.814 80.2763 277.818 83.2751 277.827C84.4179 277.826 85.5561 277.683 86.6636 277.401C88.8604 276.84 90.8801 275.734 92.5354 274.185C92.3988 273.976 92.2763 273.759 92.1689 273.534C90.1979 275.427 87.6718 276.638 84.9617 276.989C82.2516 277.341 79.5002 276.814 77.1116 275.486L76.7974 275.314C74.6237 274.028 72.8799 272.126 71.7866 269.849C70.6933 267.572 70.2995 265.022 70.6549 262.521C71.0103 260.02 72.099 257.681 73.7835 255.799C75.4679 253.917 77.6725 252.576 80.1186 251.946C82.162 251.422 84.3035 251.412 86.3519 251.916C88.4004 252.42 90.2922 253.424 91.8586 254.837C93.4251 256.25 94.6174 258.029 95.3293 260.015C96.0413 262.001 96.2506 264.132 95.9388 266.218C96.1859 266.174 96.4358 266.146 96.6868 266.136C96.9234 264.394 96.8166 262.623 96.3726 260.922Z" fill="#3F3F3F"/>
<path d="M92.1614 273.556C90.8083 274.844 89.2578 275.907 87.5687 276.705C87.244 276.848 86.9089 276.965 86.5664 277.057C86.22 277.144 85.8674 277.204 85.5117 277.236C81.7717 277.625 76.7676 275.74 76.7676 275.74L77.0967 275.494C78.0254 274.764 79.0282 274.135 80.0887 273.616C80.8367 273.414 82.1756 272.479 81.5847 270.46C79.3933 268.681 77.878 266.204 77.2912 263.443C76.8274 261.394 75.7952 257.422 79.9615 255.769C80.2948 255.644 80.6343 255.537 80.9788 255.447C81.3379 255.357 81.6894 255.29 82.0185 255.238C86.5065 254.669 87.4715 258.656 88.0549 260.668C88.8695 263.375 88.7322 266.279 87.6659 268.896C88.1297 270.946 89.7304 271.14 90.5008 270.938C90.8747 270.883 91.2536 270.87 91.6303 270.901C91.5838 271.481 91.6344 272.065 91.7799 272.629C91.8614 272.942 91.9716 273.248 92.1091 273.541L92.1614 273.556Z" fill="#3F3F3F"/>
<path d="M96.8514 276.9C95.8088 276.899 94.7873 276.606 93.9029 276.054C93.0185 275.502 92.3067 274.713 91.8484 273.777C91.3902 272.84 91.2038 271.794 91.3105 270.757C91.4172 269.72 91.8127 268.733 92.4521 267.91C93.0914 267.086 93.9489 266.459 94.9272 266.098C95.9055 265.738 96.9653 265.659 97.9861 265.871C99.0069 266.083 99.9478 266.577 100.702 267.297C101.456 268.016 101.993 268.934 102.252 269.943C102.46 270.766 102.478 271.626 102.304 272.457C102.13 273.288 101.769 274.068 101.248 274.739C100.728 275.409 100.061 275.952 99.2993 276.327C98.5374 276.701 97.7003 276.897 96.8514 276.9ZM96.8514 266.503C96.4448 266.503 96.04 266.556 95.6471 266.66C94.4799 266.968 93.4738 267.708 92.8331 268.731C92.1924 269.754 91.9652 270.983 92.1976 272.167C92.4301 273.352 93.1048 274.403 94.0846 275.108C95.0645 275.813 96.2759 276.118 97.4729 275.962C98.6698 275.806 99.7624 275.2 100.529 274.268C101.295 273.335 101.677 272.146 101.598 270.941C101.519 269.737 100.984 268.607 100.103 267.783C99.2209 266.959 98.0584 266.501 96.8514 266.503Z" fill="#3F3F3F"/>
<path d="M96.5297 271.103L95.6246 268.964L96.8439 268.649L97.0608 270.968L98.8186 269.435L99.4918 270.49L97.375 271.439L99.3646 272.614L98.5718 273.586L97.0159 271.851L96.4848 274.095L95.3329 273.631L96.5073 271.641L94.1885 271.828L94.2708 270.579L96.5297 271.103Z" fill="#3F3F3F"/>
<path d="M87.4416 255.537C83.6043 251.333 80.7619 254.452 80.7619 254.452C80.7619 254.452 76.7751 253.084 75.4287 258.619C74.0823 264.154 78.0018 268.5 74.6807 270.332C74.6807 270.332 78.8994 272.128 84.8984 270.587C90.8973 269.046 93.7322 265.448 93.7322 265.448C89.9474 265.411 91.2863 259.733 87.4416 255.537Z" fill="#3F3F3F"/>
<path d="M245.279 35.4073C245.699 32.9139 245.411 30.3529 244.448 28.0148C243.486 25.6768 241.887 23.6553 239.834 22.18C237.78 20.7047 235.355 19.8346 232.832 19.6684C230.309 19.5022 227.79 20.0467 225.56 21.2399C223.331 22.4331 221.481 24.2274 220.22 26.419C218.96 28.6106 218.338 31.1118 218.427 33.6387C218.516 36.1656 219.312 38.6169 220.724 40.7145C222.135 42.812 224.107 44.4718 226.415 45.5053C227.459 45.9686 228.557 46.3003 229.683 46.4927C231.918 46.8737 234.213 46.6859 236.355 45.9466C236.316 45.699 236.291 45.4492 236.281 45.1986C233.71 46.1268 230.909 46.2055 228.29 45.4232C225.671 44.6409 223.373 43.0389 221.732 40.8528C221.657 40.763 221.582 40.6658 221.515 40.5685C220.542 39.2009 219.845 37.6559 219.466 36.0207C219.099 34.382 219.053 32.6876 219.331 31.0315C219.611 29.3757 220.214 27.7912 221.107 26.3686C222 24.9461 223.164 23.7133 224.533 22.7408C225.902 21.7683 227.449 21.0752 229.086 20.7009C230.724 20.3266 232.418 20.2786 234.074 20.5595C235.137 20.7343 236.173 21.046 237.156 21.487C238.833 22.2381 240.329 23.3416 241.541 24.7227C242.753 26.1037 243.654 27.7297 244.181 29.49C244.709 31.2503 244.85 33.1036 244.597 34.9237C244.344 36.7438 243.701 38.488 242.713 40.0374C242.968 40.1 243.218 40.18 243.461 40.2768C244.376 38.7863 244.993 37.1326 245.279 35.4073Z" fill="#3F3F3F"/>
<path d="M236.28 45.1986C234.521 45.8256 232.672 46.1665 230.805 46.2084C230.451 46.2062 230.099 46.1762 229.75 46.1187C229.397 46.0597 229.049 45.9721 228.71 45.8569C225.15 44.6975 221.335 40.9201 221.335 40.9201L221.739 40.8303C222.893 40.547 224.074 40.384 225.262 40.3441C226.047 40.4788 227.633 40.1571 227.917 38.1001C226.64 35.5815 226.265 32.7011 226.855 29.9394C227.267 27.8824 227.917 23.8208 232.413 24.0153C232.769 24.0355 233.123 24.0754 233.475 24.135C233.823 24.1939 234.168 24.2714 234.507 24.3668C238.816 25.6609 238.098 29.7076 237.813 31.7795C237.446 34.5865 236.126 37.1822 234.073 39.1324C233.662 41.1968 235.046 42.0196 235.831 42.1244C236.196 42.2243 236.548 42.3674 236.878 42.5507C236.596 43.0601 236.404 43.6142 236.31 44.1888C236.258 44.5077 236.235 44.8307 236.243 45.1538C236.243 45.1538 236.287 45.1912 236.28 45.1986Z" fill="#3F3F3F"/>
<path d="M239.198 50.1354C238.302 49.7327 237.528 49.1006 236.955 48.3031C236.381 47.5056 236.029 46.5709 235.932 45.5934C235.836 44.6159 235.999 43.6303 236.406 42.7361C236.812 41.842 237.448 41.071 238.248 40.5011C239.146 39.8626 240.214 39.505 241.316 39.4735C242.418 39.442 243.505 39.738 244.438 40.3242C245.372 40.9103 246.111 41.7602 246.561 42.7663C247.012 43.7725 247.154 44.8896 246.969 45.9765C246.72 47.4326 245.904 48.7307 244.7 49.586C243.495 50.4414 242.001 50.7842 240.544 50.5393C240.081 50.4593 239.628 50.3237 239.198 50.1354ZM243.446 40.6432C243.074 40.4758 242.682 40.3576 242.279 40.2917C241.075 40.0907 239.84 40.3558 238.824 41.0332C237.809 41.7105 237.089 42.7492 236.812 43.9381C236.535 45.127 236.721 46.3768 237.332 47.4334C237.944 48.49 238.935 49.2742 240.103 49.6263C241.272 49.9785 242.531 49.8722 243.625 49.3292C244.718 48.7862 245.564 47.8472 245.989 46.7031C246.415 45.559 246.389 44.2957 245.917 43.17C245.444 42.0444 244.561 41.1409 243.446 40.6432Z" fill="#3F3F3F"/>
<path d="M241.269 44.7349V42.4011L242.503 42.6106L241.755 44.8546L243.999 44.1664L244.186 45.4081H241.86L243.199 47.293L242.084 47.854L241.336 45.61L239.93 47.4651L239.063 46.5675L240.947 45.2286L238.756 44.4806L239.339 43.381L241.269 44.7349Z" fill="#3F3F3F"/>
<path d="M141.392 19.2958L120.272 22.796C119.498 22.9243 118.974 23.6561 119.102 24.4304L121.223 37.2262C121.351 38.0005 122.083 38.5242 122.858 38.3959L143.977 34.8958C144.752 34.7674 145.275 34.0357 145.147 33.2613L143.026 20.4655C142.898 19.6912 142.166 19.1675 141.392 19.2958Z" fill="#3F3F3F" stroke="#757575" stroke-linecap="round" stroke-linejoin="round"/>
<path d="M119.174 24.9053L130.738 29.9394C131.246 30.1609 131.808 30.2301 132.355 30.1385C132.902 30.0468 133.411 29.7984 133.82 29.4233L143.095 20.9634" fill="#3F3F3F"/>
<path d="M119.174 24.9053L130.738 29.9394C131.246 30.1609 131.808 30.2301 132.355 30.1385C132.902 30.0468 133.411 29.7984 133.82 29.4233L143.095 20.9634" stroke="#757575" stroke-linecap="round" stroke-linejoin="round"/>
<path d="M123.176 35.1306L128.262 31.054L123.176 35.1306Z" fill="#3F3F3F"/>
<path d="M123.176 35.1306L128.262 31.054" stroke="#757575" stroke-linecap="round" stroke-linejoin="round"/>
<path d="M142.608 31.9142L136.475 29.6702L142.608 31.9142Z" fill="#3F3F3F"/>
<path d="M142.608 31.9142L136.475 29.6702" stroke="#757575" stroke-linecap="round" stroke-linejoin="round"/>
<path d="M231.277 285.251L212.867 274.547C212.192 274.155 211.326 274.384 210.934 275.059L204.449 286.213C204.056 286.888 204.285 287.754 204.96 288.146L223.371 298.85C224.046 299.242 224.911 299.013 225.304 298.338L231.789 287.184C232.182 286.509 231.952 285.643 231.277 285.251Z" fill="#3F3F3F" stroke="#757575" stroke-width="0.994786" stroke-linecap="round" stroke-linejoin="round"/>
<path d="M210.639 277.423L216.316 288.643C216.56 289.141 216.944 289.557 217.421 289.842C217.898 290.126 218.447 290.265 219.001 290.243L231.583 289.63" fill="#3F3F3F"/>
<path d="M210.639 277.423L216.316 288.643C216.56 289.141 216.944 289.557 217.421 289.842C217.898 290.126 218.447 290.265 219.001 290.243L231.583 289.63" stroke="#757575" stroke-linecap="round" stroke-linejoin="round"/>
<path d="M207.198 287.857L213.721 287.955L207.198 287.857Z" fill="#3F3F3F"/>
<path d="M207.198 287.857L213.721 287.955" stroke="#757575" stroke-linecap="round" stroke-linejoin="round"/>
<path d="M224.238 297.768L220.932 292.143L224.238 297.768Z" fill="#3F3F3F"/>
<path d="M224.238 297.768L220.932 292.143" stroke="#757575" stroke-linecap="round" stroke-linejoin="round"/>
<path d="M34.1856 193.646L15.3436 203.808C14.6528 204.181 14.3948 205.043 14.7674 205.734L20.9245 217.15C21.2971 217.84 22.1592 218.098 22.85 217.726L41.6919 207.563C42.3828 207.191 42.6408 206.329 42.2682 205.638L36.1111 194.222C35.7385 193.531 34.8764 193.273 34.1856 193.646Z" fill="#3F3F3F" stroke="#757575" stroke-linecap="round" stroke-linejoin="round"/>
<path d="M14.9697 206.153L27.5137 207.215C28.0667 207.257 28.62 207.138 29.1069 206.872C29.5939 206.607 29.9939 206.207 30.2588 205.719L36.3027 194.671" fill="#3F3F3F"/>
<path d="M14.9697 206.153L27.5137 207.215C28.0667 207.257 28.62 207.138 29.1069 206.872C29.5939 206.607 29.9939 206.207 30.2588 205.719L36.3027 194.671" stroke="#757575" stroke-linecap="round" stroke-linejoin="round"/>
<path d="M22.0762 214.538L25.5619 209.026L22.0762 214.538Z" fill="#3F3F3F"/>
<path d="M22.0762 214.538L25.5619 209.026" stroke="#757575" stroke-linecap="round" stroke-linejoin="round"/>
<path d="M39.4142 205.188L32.8916 205.076L39.4142 205.188Z" fill="#3F3F3F"/>
<path d="M39.4142 205.188L32.8916 205.076" stroke="#757575" stroke-linecap="round" stroke-linejoin="round"/>
<path d="M88.0036 46.6262H125.247C126.536 46.6262 127.773 47.1385 128.684 48.0503C129.596 48.9621 130.109 50.1987 130.109 51.4882V73.6739C130.11 74.313 129.984 74.9461 129.741 75.5368C129.497 76.1276 129.139 76.6644 128.687 77.1167C128.236 77.569 127.699 77.9278 127.109 78.1726C126.519 78.4174 125.886 78.5434 125.247 78.5434H120.601L124.895 86.6816L114.977 78.5434H88.0036C87.3645 78.5434 86.7317 78.4174 86.1413 78.1726C85.5509 77.9278 85.0146 77.569 84.563 77.1167C84.1114 76.6644 83.7535 76.1276 83.5096 75.5368C83.2657 74.9461 83.1406 74.313 83.1416 73.6739V51.4882C83.1416 50.1987 83.6539 48.9621 84.5657 48.0503C85.4775 47.1385 86.7141 46.6262 88.0036 46.6262Z" fill="#2E2E2E" stroke="#7E7E7E" stroke-linecap="round" stroke-linejoin="round"/>
<g opacity="0.5">
<path opacity="0.5" d="M90.0007 55.5947L123.257 55.5947C123.596 55.5947 123.87 55.3201 123.87 54.9814V54.7121C123.87 54.3733 123.596 54.0987 123.257 54.0987L90.0007 54.0987C89.662 54.0987 89.3873 54.3733 89.3873 54.7121V54.9814C89.3873 55.3201 89.662 55.5947 90.0007 55.5947Z" fill="#2E2E2E"/>
<path opacity="0.5" d="M90.0007 60.6362L123.257 60.6362C123.596 60.6362 123.87 60.3616 123.87 60.0229V59.7536C123.87 59.4148 123.596 59.1402 123.257 59.1402L90.0007 59.1402C89.662 59.1402 89.3873 59.4148 89.3873 59.7536V60.0229C89.3873 60.3616 89.662 60.6362 90.0007 60.6362Z" fill="#2E2E2E"/>
<path opacity="0.5" d="M90.0007 65.6777H123.257C123.596 65.6777 123.87 65.4031 123.87 65.0644V64.7951C123.87 64.4563 123.596 64.1817 123.257 64.1817H90.0007C89.662 64.1817 89.3873 64.4563 89.3873 64.7951V65.0644C89.3873 65.4031 89.662 65.6777 90.0007 65.6777Z" fill="#2E2E2E"/>
<path opacity="0.5" d="M105.708 70.7266H123.249C123.588 70.7266 123.862 70.4519 123.862 70.1132V69.8439C123.862 69.5052 123.588 69.2306 123.249 69.2306H105.708C105.37 69.2306 105.095 69.5052 105.095 69.8439V70.1132C105.095 70.4519 105.37 70.7266 105.708 70.7266Z" fill="#2E2E2E"/>
</g>
<path d="M134.486 191.065C134.484 191.08 134.484 191.095 134.486 191.11C134.127 191.858 128.951 202.921 122.645 213.55C120.992 216.34 119.264 219.092 117.521 221.628C113.729 227.148 109.884 231.614 106.69 233.005C96.2181 237.56 102.202 201.866 102.202 201.866C106.022 197.32 109.307 192.351 111.993 187.056C113.243 184.587 114.694 181.722 116.212 178.828C117.379 176.621 118.576 174.414 119.75 172.372C122.406 167.735 124.881 163.995 126.385 163.262C128.031 162.454 130.304 170.794 132.025 178.551C133.424 185.013 134.486 191.065 134.486 191.065Z" fill="white" stroke="black" stroke-linecap="round" stroke-linejoin="round"/>
<path d="M134.485 191.065C134.484 191.08 134.484 191.095 134.485 191.11C134.126 191.858 128.95 202.921 122.644 213.55C124.544 196.563 122.764 185.201 122.764 185.201C118.717 179.082 116.182 178.85 116.182 178.85C117.349 176.643 118.545 174.437 119.72 172.395L125.075 167.391L131.994 178.573C133.423 185.013 134.485 191.065 134.485 191.065Z" fill="#263238"/>
<path d="M182.746 76.8303C192.2 83.6745 200.473 107.85 197.317 123.558C194.16 139.266 210.399 143.754 210.339 168.55C210.339 175.462 188.932 203.556 164.076 188.567C139.22 173.577 132.316 166.201 134.679 151.167C137.043 136.132 137.148 126.243 132.66 113.624C128.172 101.006 165.594 64.436 182.746 76.8303Z" fill="#3F3F3F"/>
<path d="M219.114 182.859L213.833 186.442C212.457 195.11 210.059 203.584 206.689 211.687C200.04 227.298 194.153 236.603 192.096 239.677C191.587 240.425 191.31 240.799 191.31 240.799L196.831 261.497C196.831 261.497 159.992 299.802 119.36 294.274L122.076 272.582L125.733 243.41L126.923 233.933C126.923 233.933 126.421 227.134 125.621 218.763C125.075 212.996 124.387 206.481 123.609 200.931C123.577 200.683 123.564 200.433 123.572 200.183C123.631 196.682 126.377 189.322 126.377 189.322C124.058 185.649 121.889 182.268 120.101 179.598C117.737 176.015 116.174 173.711 116.174 173.711C116.174 173.711 124.402 163.598 124.866 162.446C127.469 155.632 136.564 156.904 136.564 156.904C137.244 156.246 138.094 155.79 139.018 155.587C143.341 154.503 155.631 163.12 162.34 163.187C169.05 163.254 201.984 154.383 201.984 154.383L205.335 155.587C205.335 155.587 209.876 155.049 213.421 161.616C215.104 164.795 219.114 182.859 219.114 182.859Z" fill="#7479F1"/>
<path opacity="0.3" d="M159.977 268.161C159.977 268.161 137.088 275.888 122.038 272.59L125.696 243.417C128.957 246.656 147.867 264.9 159.977 268.161Z" fill="black" fill-opacity="0.7"/>
<path opacity="0.3" d="M126.34 189.352C124.021 185.679 121.852 182.298 120.064 179.628C121.62 175.888 123.932 172.425 127.133 172.627C127.133 172.627 124.897 182.56 126.34 189.352Z" fill="black" fill-opacity="0.7"/>
<path opacity="0.3" d="M200.571 182.859C196.465 184.221 187.16 188.342 187.16 188.342L185.439 186.345L192.059 176.86C192.059 176.86 187.399 178.745 185.439 181.116C183.48 183.488 182.964 188.776 182.889 188.754C182.814 188.731 181.176 183.188 181.176 183.188C180.619 185.496 180.254 187.845 180.084 190.212C179.867 192.718 182.619 196.795 185.006 199.824L180.847 221.957L164.989 212.316L157.509 207.783C156.855 207.438 156.223 207.053 155.617 206.631C154.749 205.928 154.181 205.015 153.171 204.387C152.017 203.74 150.771 203.273 149.476 203.003C144.741 201.901 139.82 201.862 135.069 202.891C133.064 203.325 131.007 203.945 129.018 203.474C127.028 203.003 125.323 201.41 123.572 200.213C123.565 200.463 123.577 200.713 123.61 200.961C124.358 206.511 125.106 213.026 125.622 218.793H126.475C127.027 218.763 127.58 218.808 128.12 218.928C129.265 219.242 131.539 224.822 132.324 225.705C138.061 232.108 147.658 242.909 154.629 247.958C153.238 244.218 145.96 231.128 146.095 227.014C147.658 227.537 148.877 228.742 150.134 229.811C153.919 233.058 158.437 235.317 162.895 237.546L172.716 242.46C175.708 243.956 179.65 246.297 183.091 245.377C185.911 244.629 189.464 241.794 191.715 240.007L192.089 239.707C194.146 236.633 200.033 227.328 206.683 211.717C210.053 203.614 212.45 195.14 213.826 186.472L219.107 182.889C219.107 182.889 204.678 181.498 200.571 182.859Z" fill="black" fill-opacity="0.7"/>
<path d="M119.36 294.274L126.923 233.97C126.923 233.97 125.501 214.582 123.609 200.968C123.183 197.917 126.377 189.352 126.377 189.352C120.939 180.75 116.174 173.741 116.174 173.741C116.174 173.741 124.402 163.628 124.866 162.476C127.469 155.662 136.564 156.934 136.564 156.934C137.244 156.276 138.094 155.82 139.018 155.617C143.341 154.533 155.631 163.15 162.34 163.217C169.05 163.284 201.984 154.413 201.984 154.413L205.335 155.617C205.335 155.617 209.876 155.079 213.421 161.646C215.127 164.795 219.143 182.859 219.143 182.859L213.863 186.442C212.487 195.11 210.089 203.584 206.719 211.687C198.431 231.135 191.333 240.814 191.333 240.814L196.853 261.512" stroke="#263238" stroke-linecap="round" stroke-linejoin="round"/>
<path d="M192.926 175.716C192.926 175.716 183.554 187.856 183.785 190.1C184.017 192.344 188.356 194.655 188.356 194.655" stroke="#263238" stroke-linecap="round" stroke-linejoin="round"/>
<path d="M180.846 180.585C181.298 183.738 181.56 186.916 181.631 190.1C181.631 194.259 192.926 201.163 192.926 201.163" stroke="#263238" stroke-linecap="round" stroke-linejoin="round"/>
<path d="M126.339 189.352C126.339 189.352 125.554 173.345 128.045 170.585" stroke="#263238" stroke-linecap="round" stroke-linejoin="round"/>
<path d="M123.572 176.501C123.572 176.501 124.859 184.789 126.22 186.368" stroke="#263238" stroke-linecap="round" stroke-linejoin="round"/>
<path d="M165.655 182.859C165.655 182.859 149.475 193.272 134.485 194.655" stroke="white" stroke-linecap="round" stroke-linejoin="round"/>
<path d="M134.485 228.39C134.485 228.39 152.632 250.284 164.473 253.246" stroke="white" stroke-linecap="round" stroke-linejoin="round"/>
<path d="M191.303 240.814C191.303 240.814 187.182 237.822 188.356 236.072" stroke="#263238" stroke-linecap="round" stroke-linejoin="round"/>
<path d="M180.846 258.617C180.846 258.617 155.1 272.971 141.95 271.789" stroke="white" stroke-linecap="round" stroke-linejoin="round"/>
<path d="M111.761 212.6C108.403 200.258 102.905 196.234 99.2769 183.017C98.1998 179.105 95.0058 167.174 95.0058 167.174C95.0058 167.174 99.0824 154.458 90.9367 147.217C90.9367 147.217 88.6927 147.217 84.8704 156.021C83.2737 159.867 82.8597 164.101 83.6811 168.184C83.6811 168.184 86.2168 183.69 86.7703 187.856C88.1018 197.902 90.9891 214.724 94.9983 223.169C99.2993 232.198 103.832 234.217 107.228 232.355" fill="white"/>
<path d="M111.761 212.6C108.403 200.258 102.905 196.234 99.2769 183.017C98.1998 179.105 95.0058 167.174 95.0058 167.174C95.0058 167.174 99.0824 154.458 90.9367 147.217C90.9367 147.217 88.6927 147.217 84.8704 156.021C83.2737 159.867 82.8597 164.101 83.6811 168.184C83.6811 168.184 86.2168 183.69 86.7703 187.856C88.1018 197.902 90.9891 214.724 94.9983 223.169C99.2993 232.198 103.832 234.217 107.228 232.355" stroke="black" stroke-linecap="round" stroke-linejoin="round"/>
<path d="M96.4267 164.466L105.148 167.346C106.068 167.585 107.879 166.052 107.796 165.102L105.186 134.748C105.135 134.15 104.9 133.583 104.512 133.125C104.125 132.666 103.605 132.34 103.024 132.19L93.3973 130.096C92.4773 129.864 90.166 130.963 90.2482 131.906L94.2575 161.908C94.3088 162.507 94.5452 163.075 94.9339 163.533C95.3226 163.992 95.8443 164.318 96.4267 164.466Z" fill="#7479F1"/>
<path opacity="0.3" d="M96.4267 164.466L105.148 167.346C106.068 167.585 107.879 166.052 107.796 165.102L105.186 134.748C105.135 134.15 104.9 133.583 104.512 133.125C104.125 132.666 103.605 132.34 103.024 132.19L93.3973 130.096C92.4773 129.864 90.166 130.963 90.2482 131.906L94.2575 161.908C94.3088 162.507 94.5452 163.075 94.9339 163.533C95.3226 163.992 95.8443 164.318 96.4267 164.466Z" fill="black" fill-opacity="0.7"/>
<path d="M96.4267 164.466L105.148 167.346C106.068 167.585 107.879 166.052 107.796 165.102L105.186 134.748C105.135 134.15 104.9 133.583 104.512 133.125C104.125 132.666 103.605 132.34 103.024 132.19L93.3973 130.096C92.4773 129.864 90.166 130.963 90.2482 131.906L94.2575 161.908C94.3088 162.507 94.5452 163.075 94.9339 163.533C95.3226 163.992 95.8443 164.318 96.4267 164.466V164.466Z" stroke="#263238" stroke-linecap="round" stroke-linejoin="round"/>
<path d="M94.9909 165.214L104.618 167.301C104.83 167.357 105.053 167.361 105.267 167.313C105.482 167.265 105.681 167.166 105.849 167.024C106.017 166.883 106.149 166.703 106.232 166.5C106.316 166.296 106.35 166.076 106.331 165.857L103.757 135.496C103.706 134.897 103.47 134.329 103.081 133.871C102.692 133.412 102.171 133.086 101.588 132.938L91.969 130.843C91.756 130.789 91.5331 130.786 91.3189 130.835C91.1047 130.885 90.9054 130.985 90.7377 131.127C90.5699 131.269 90.4387 131.449 90.3549 131.652C90.2711 131.855 90.2372 132.076 90.256 132.295L92.8292 162.656C92.8799 163.254 93.1152 163.821 93.5025 164.279C93.8898 164.738 94.4099 165.064 94.9909 165.214Z" fill="#7479F1" stroke="#263238" stroke-linecap="round" stroke-linejoin="round"/>
<path opacity="0.3" d="M100.331 141.113L101.88 141.45C101.914 141.458 101.95 141.458 101.984 141.45C102.018 141.442 102.05 141.426 102.077 141.404C102.104 141.381 102.125 141.353 102.139 141.321C102.153 141.288 102.159 141.253 102.157 141.218L101.745 136.319C101.736 136.222 101.697 136.131 101.634 136.058C101.571 135.984 101.487 135.931 101.394 135.907L99.8377 135.571C99.8036 135.562 99.768 135.562 99.7338 135.57C99.6996 135.578 99.6678 135.594 99.6408 135.617C99.6139 135.639 99.5927 135.668 99.5788 135.7C99.5649 135.732 99.5588 135.768 99.561 135.803L99.9799 140.702C99.9891 140.798 100.028 140.89 100.091 140.963C100.154 141.037 100.238 141.089 100.331 141.113Z" fill="black" fill-opacity="0.7"/>
<path d="M86.7928 156.328C86.4188 152.072 90.2934 145.684 92.874 145.684C95.4546 145.684 103.294 151.728 103.294 151.728C106.331 153.927 104.827 156.021 104.827 156.021C106.615 157.203 107.071 158.804 106.286 159.544C105.5 160.285 102.875 159.544 102.875 159.544C102.875 159.544 105.478 161.444 104.827 162.379C103.294 164.586 98.2521 161.676 98.2521 161.676C98.2521 161.676 101.177 163.606 101.012 163.972C99.9052 166.381 95.1255 163.576 95.1255 163.576L91.767 165.296C91.77 165.692 91.6911 166.085 91.5352 166.449C91.3793 166.813 91.1498 167.141 90.8611 167.412C90.5724 167.683 90.2307 167.892 89.8575 168.024C89.4844 168.157 89.0878 168.211 88.6927 168.184" fill="white"/>
<path d="M86.7928 156.328C86.4188 152.072 90.2934 145.684 92.874 145.684C95.4546 145.684 103.294 151.728 103.294 151.728C106.331 153.927 104.827 156.021 104.827 156.021C106.615 157.203 107.071 158.804 106.286 159.544C105.5 160.285 102.875 159.544 102.875 159.544C102.875 159.544 105.478 161.444 104.827 162.379C103.294 164.586 98.2521 161.676 98.2521 161.676C98.2521 161.676 101.177 163.606 101.012 163.972C99.9052 166.381 95.1255 163.576 95.1255 163.576L91.767 165.296C91.77 165.692 91.6911 166.085 91.5352 166.449C91.3793 166.813 91.1498 167.141 90.8611 167.412C90.5724 167.683 90.2307 167.892 89.8575 168.024C89.4844 168.157 89.0878 168.211 88.6927 168.184" stroke="#263238" stroke-linecap="round" stroke-linejoin="round"/>
<path d="M104.826 156.021C104.826 156.021 97.4811 151.279 96.5536 151.152C95.6261 151.024 92.2227 150.284 92.2227 150.284" fill="white"/>
<path d="M104.826 156.021C104.826 156.021 97.4811 151.279 96.5536 151.152C95.6261 151.024 92.2227 150.284 92.2227 150.284" stroke="#263238" stroke-linecap="round" stroke-linejoin="round"/>
<path d="M102.905 159.544C102.905 159.544 96.9205 156.462 95.8434 156.462C94.192 156.281 92.5533 155.999 90.9365 155.617" fill="white"/>
<path d="M102.905 159.544C102.905 159.544 96.9205 156.462 95.8434 156.462C94.192 156.281 92.5533 155.999 90.9365 155.617" stroke="#263238" stroke-linecap="round" stroke-linejoin="round"/>
<path d="M98.2528 161.676C97.5558 161.18 96.8175 160.744 96.0461 160.374C94.6218 160.272 93.1919 160.272 91.7676 160.374" fill="white"/>
<path d="M98.2528 161.676C97.5558 161.18 96.8175 160.744 96.0461 160.374C94.6218 160.272 93.1919 160.272 91.7676 160.374" stroke="#263238" stroke-linecap="round" stroke-linejoin="round"/>
<path d="M173.052 209.451C173.052 209.451 177.689 206.84 181.833 197.101C185.977 187.362 187.159 188.342 187.159 188.342C187.159 188.342 196.232 183.892 200.571 182.859C204.909 181.827 212.801 182.859 212.801 182.859C212.801 182.859 206.069 202.39 199.194 215.091C192.32 227.792 186.785 235.287 183.112 236.035C179.44 236.783 173.052 209.451 173.052 209.451Z" fill="white" stroke="black" stroke-linecap="round" stroke-linejoin="round"/>
<path d="M199.98 155.692C199.98 155.692 166.963 173.277 157.419 173.18C147.874 173.083 141.928 156.724 141.928 156.724C141.928 156.724 159.581 156.328 157.531 147.89C157.531 147.748 157.464 147.591 157.419 147.442C156.574 144.494 153.335 139.333 152.13 137.478C151.846 137.037 151.674 136.783 151.674 136.783L177.802 117.275C176.306 136.999 179.193 145.646 180.966 148.893C184.01 154.45 199.98 155.692 199.98 155.692Z" fill="white" stroke="#263238" stroke-linecap="round" stroke-linejoin="round"/>
<path d="M170.389 128.33C170.389 128.33 164.943 143.724 157.508 147.89C157.508 147.748 157.441 147.591 157.396 147.441C156.551 144.494 153.312 139.333 152.107 137.478L170.389 128.33Z" fill="#263238"/>
<path d="M159.072 168.49C159.072 168.49 160.92 164.922 163.68 164.503C166.44 164.085 174.04 164.01 188.095 161.676" stroke="#263238" stroke-linecap="round" stroke-linejoin="round"/>
<path d="M154.831 168.49C154.831 168.49 153.649 165.715 153.335 164.503C153.021 163.292 145.676 161.766 143.237 159.761" stroke="#263238" stroke-linecap="round" stroke-linejoin="round"/>
<path d="M134.852 84.804C130.012 90.0774 128.569 107.289 130.985 114.724C130.985 114.724 143.11 116.459 145.945 114.275C148.78 112.091 134.852 84.804 134.852 84.804Z" fill="#263238"/>
<path d="M180.45 119.564C181.617 114.41 187.803 89.4267 173.239 78.3712C158.676 67.3158 140.911 82.0589 138.42 85.5371C128.374 99.5696 132.825 110.722 134.68 117.447C136.535 124.171 135.622 132.317 145.017 143.515C148.966 148.219 156.072 145.714 163.074 140.844C167.27 137.927 173.179 132.796 173.329 127.851" fill="white"/>
<path d="M180.45 119.564C181.617 114.41 187.803 89.4267 173.239 78.3712C158.676 67.3158 140.911 82.0589 138.42 85.5371C128.374 99.5696 132.825 110.722 134.68 117.447C136.535 124.171 135.622 132.317 145.017 143.515C148.966 148.219 156.072 145.714 163.074 140.844C167.27 137.927 173.179 132.796 173.329 127.851" stroke="#263238" stroke-linecap="round" stroke-linejoin="round"/>
<path d="M147.156 108.613C147.156 108.613 155.048 107.207 159.513 110.004" stroke="#263238" stroke-linecap="round" stroke-linejoin="round"/>
<path d="M155.504 116.243C155.698 117.454 155.272 118.531 154.547 118.651C153.821 118.771 153.051 117.903 152.871 116.676C152.692 115.45 153.103 114.388 153.828 114.268C154.554 114.148 155.302 115.031 155.504 116.243Z" fill="#263238"/>
<path d="M139.736 116.242C139.931 117.454 139.505 118.531 138.779 118.651C138.053 118.771 137.283 117.903 137.103 116.676C136.924 115.45 137.335 114.387 138.061 114.268C138.786 114.148 139.557 115.031 139.736 116.242Z" fill="#263238"/>
<path d="M138.42 108.688C138.42 108.688 134.066 107.132 132.66 109.129" stroke="#263238" stroke-linecap="round" stroke-linejoin="round"/>
<path d="M141.165 115.644C141.614 117.349 138.173 125.039 138.42 125.705C138.667 126.37 140.357 127.552 143.387 127.851" stroke="#263238" stroke-linecap="round" stroke-linejoin="round"/>
<path d="M144.883 133.14C144.883 133.14 151.196 133.14 154.831 130.574" stroke="#263238" stroke-linecap="round" stroke-linejoin="round"/>
<path d="M136.654 81.094C136.654 81.094 129.997 87.2799 134.29 99.4424C135.238 101.923 136.638 104.205 138.419 106.174C142.87 103.669 145.092 107.581 147.754 106.302C150.417 105.022 154.658 107.738 157.419 107.199C158.776 106.897 160.185 106.91 161.536 107.238C162.887 107.566 164.145 108.2 165.213 109.092C167.285 110.947 167.285 115.008 170.389 116.968C170.389 116.968 172.199 110.618 176.014 111.538C179.829 112.458 176.455 123.506 176.455 123.506C181.236 117.678 184.217 110.585 185.035 103.093C186.531 90.3766 181.504 79.2689 173.067 76.9127C173.067 76.9127 170.254 71.4373 160.635 72.3199C151.016 73.2026 142.294 72.664 136.654 81.094Z" fill="#3F3F3F"/>
<path d="M173.052 113.206C173.052 113.206 176.605 104.499 181.781 108.112C186.957 111.725 180.749 122.817 178.228 125.63C175.707 128.442 174.974 125.338 174.682 124.448" fill="white"/>
<path d="M173.052 113.206C173.052 113.206 176.605 104.499 181.781 108.112C186.957 111.725 180.749 122.817 178.228 125.63C175.707 128.442 174.974 125.338 174.682 124.448" stroke="#263238" stroke-linecap="round" stroke-linejoin="round"/>
<g opacity="0.2">
<path opacity="0.2" d="M138.988 87.4221C139.137 85.2428 139.79 83.1278 140.896 81.2437" stroke="white" stroke-linecap="round" stroke-linejoin="round"/>
<path opacity="0.2" d="M144.882 102.405C141.681 98.8291 139.242 94.0195 138.98 89.1874" stroke="white" stroke-linecap="round" stroke-linejoin="round"/>
<path opacity="0.2" d="M151.674 96.3906C153.48 99.3465 156.031 101.776 159.072 103.437" stroke="white" stroke-linecap="round" stroke-linejoin="round"/>
<path opacity="0.2" d="M149.856 81.2437C147.403 85.1856 148.816 90.8405 150.731 94.7077" stroke="white" stroke-linecap="round" stroke-linejoin="round"/>
<path opacity="0.2" d="M174.787 103.661C176.641 104.623 178.588 105.392 180.599 105.957" stroke="white" stroke-linecap="round" stroke-linejoin="round"/>
<path opacity="0.2" d="M157.418 86.4272C161.157 93.1759 166.605 98.8226 173.216 102.801" stroke="white" stroke-linecap="round" stroke-linejoin="round"/>
</g>
<path d="M120.206 151.309C120.206 151.309 117.962 151.309 117.76 152.947C117.558 154.585 120.901 156.724 120.901 156.724" fill="white"/>
<path d="M120.206 151.309C120.206 151.309 117.962 151.309 117.76 152.947C117.558 154.585 120.901 156.724 120.901 156.724" stroke="#263238" stroke-linecap="round" stroke-linejoin="round"/>
<path d="M183.241 210.812C178.184 203.1 171.048 198.276 164.668 189.718C159.386 182.622 154.514 175.229 150.074 167.578L143.305 154.862C143.305 154.862 135.017 144.868 131.666 143.642C128.315 142.415 109.974 141.832 109.974 141.832C109.974 141.832 109.226 143.821 112.061 144.824C114.896 145.826 123.58 146.641 123.58 146.641C123.58 146.641 121.022 147.741 120.431 148.646C119.84 149.551 120.431 156.986 121.613 158.497C122.795 160.008 127.335 161.384 127.335 161.384C127.335 161.384 127.934 166.62 132.369 169.216C136.805 171.811 138.974 171.841 138.974 171.841C138.974 171.841 143.148 178.932 144.891 183.996C148.631 194.79 158.063 219.332 164.877 228.181C172.941 238.653 183.39 239.057 187.168 232.392" fill="white"/>
<path d="M183.241 210.812C178.184 203.1 171.048 198.276 164.668 189.718C159.386 182.622 154.514 175.229 150.074 167.578L143.305 154.862C143.305 154.862 135.017 144.868 131.666 143.642C128.315 142.415 109.974 141.832 109.974 141.832C109.974 141.832 109.226 143.821 112.061 144.824C114.896 145.826 123.58 146.641 123.58 146.641C123.58 146.641 121.022 147.741 120.431 148.646C119.84 149.551 120.431 156.986 121.613 158.497C122.795 160.008 127.335 161.384 127.335 161.384C127.335 161.384 127.934 166.62 132.369 169.216C136.805 171.811 138.974 171.841 138.974 171.841C138.974 171.841 143.148 178.932 144.891 183.996C148.631 194.79 158.063 219.332 164.877 228.181C172.941 238.653 183.39 239.057 187.168 232.392" stroke="black" stroke-linecap="round" stroke-linejoin="round"/>
<path d="M131.329 150.591C131.329 150.591 124.896 151.339 124.081 151.922C123.266 152.506 123.655 157.106 124.081 158.714C124.154 159.133 124.317 159.531 124.56 159.88C124.803 160.229 125.12 160.52 125.487 160.734" stroke="#263238" stroke-linecap="round" stroke-linejoin="round"/>
<path d="M128.674 146.791C128.674 146.791 122.346 148.369 121.942 149.184C121.353 151.411 121.254 153.738 121.65 156.006C122.166 158.504 122.316 159.29 123.281 159.746" stroke="#263238" stroke-linecap="round" stroke-linejoin="round"/>
<path d="M123.572 146.649C124.472 146.272 125.397 145.957 126.34 145.706" stroke="#263238" stroke-linecap="round" stroke-linejoin="round"/>
<path d="M127.432 155.692C127.972 156.31 128.638 156.806 129.384 157.148C130.131 157.49 130.942 157.669 131.763 157.674C131.763 157.674 130.379 163 132.847 166.456" stroke="#263238" stroke-linecap="round" stroke-linejoin="round"/>
<path d="M128.673 156.724C128.673 156.724 127.244 157.884 127.431 158.505" stroke="#263238" stroke-linecap="round" stroke-linejoin="round"/>
<path d="M187.16 188.342C187.16 188.342 199.876 182.777 201.716 182.403C203.556 182.029 217.342 182.71 217.342 182.71C215.636 184.284 213.67 185.549 211.53 186.45C211.53 186.45 211.223 183.914 207.79 183.622C204.357 183.331 187.16 188.342 187.16 188.342Z" fill="#263238"/>
</g>
<defs>
<clipPath id="clip0_360_374">
<rect width="254" height="310" fill="white"/>
</clipPath>
</defs>
</svg>
