<svg width="39" height="39" viewBox="0 0 39 39" fill="none" xmlns="http://www.w3.org/2000/svg">
<path fill-rule="evenodd" clip-rule="evenodd" d="M14.7425 0.0418668C14.0663 0.103355 12.6381 0.379176 11.8541 0.599605C6.48919 2.10801 2.13168 6.46629 0.61273 11.8428C0.0460846 13.8486 -0.144422 16.32 0.112202 18.3345C0.917496 24.6547 5.18848 29.8677 11.2005 31.8684C12.9882 32.4633 14.3443 32.6756 16.3553 32.6756C17.9202 32.6756 19.0688 32.5376 20.4383 32.185C22.1101 31.7546 23.6647 31.0786 25.1733 30.1263L25.8541 29.6965L26.9401 30.7808L28.0261 31.8652L27.8017 32.1206C27.6525 32.2908 27.5775 32.4585 27.5775 32.6225C27.5775 32.8451 27.8446 33.1352 30.3387 35.6219C33.2199 38.4944 33.3505 38.6024 34.2755 38.8769C35.1026 39.1224 36.2432 38.9925 37.0552 38.5605C37.5446 38.3 38.2936 37.5491 38.5628 37.0488C39.1408 35.9753 39.146 34.6315 38.5766 33.4934C38.4241 33.1886 37.7299 32.4447 35.6267 30.3327C33.1375 27.833 32.8527 27.5707 32.6289 27.5707C32.4639 27.5707 32.2968 27.6452 32.1262 27.795L31.8708 28.0194L30.7844 26.9308L29.6981 25.8422L30.1152 25.2016C30.6269 24.4156 31.3041 23.0746 31.6588 22.145C32.1842 20.7675 32.6868 18.4945 32.5305 18.2023C32.4217 17.999 32.1475 17.8179 31.9484 17.8179C31.602 17.8179 31.4445 18.1194 31.2578 19.1406C30.1619 25.134 25.4965 29.9062 19.4736 31.1946C15.1947 32.1099 10.5951 31.0543 7.04906 28.3432C6.34363 27.8039 5.15092 26.6193 4.50148 25.8129C1.31222 21.8535 0.341481 16.4659 1.94194 11.6081C2.71417 9.26397 3.87885 7.37452 5.63294 5.61993C8.05195 3.20025 11.0174 1.74541 14.4759 1.28154C15.4189 1.15506 17.4853 1.1754 18.4749 1.32093C21.234 1.72666 23.7284 2.80221 25.8203 4.48815C29.1515 7.17284 31.1342 10.9392 31.4736 15.2273C31.5728 16.4825 31.6592 16.675 32.123 16.675C32.5725 16.675 32.6811 16.4784 32.6807 15.6654C32.6797 13.703 32.0632 11.2504 31.048 9.16987C28.624 4.20212 23.9084 0.818814 18.4139 0.10526C17.5972 -0.000801665 15.5921 -0.0353936 14.7425 0.0418668ZM14.4903 3.53253C12.4721 3.83936 10.5518 4.61235 8.87583 5.79259C7.98948 6.41677 6.50237 7.90757 5.84897 8.827C4.87305 10.2002 4.10713 11.9616 3.71736 13.729C3.56646 14.4131 3.54666 14.7168 3.54734 16.3321C3.54803 17.88 3.56783 18.2047 3.67623 18.4469C3.88631 18.9162 4.44229 19.0033 4.70151 18.6075C4.80716 18.4462 4.80982 18.3113 4.72466 17.4252C4.15581 11.5044 8.07883 6.12441 13.8902 4.85571C16.4256 4.30224 19.2778 4.67841 21.6176 5.87495C24.7477 7.47563 26.9586 10.3593 27.7432 13.8649C27.8978 14.5553 27.9203 14.8591 27.9203 16.2559C27.9203 18.0423 27.8483 18.532 27.3756 19.962C26.89 21.4307 25.9872 22.9722 24.9327 24.1329L24.491 24.6192L24.0596 24.0558C23.2907 23.0517 22.202 22.104 21.1259 21.5021L20.6435 21.2321L20.9134 20.8642C21.2675 20.3817 21.7488 19.3385 21.8676 18.7958C21.9574 18.3859 21.9757 18.3616 22.2336 18.3133C22.8797 18.192 23.578 17.5868 23.7555 16.9944C23.87 16.6122 23.87 16.0519 23.7555 15.6697C23.6528 15.3269 23.1677 14.7415 22.8503 14.5773L22.6347 14.4658L22.7853 14.1251C23.3915 12.7544 23.3661 10.9854 22.7232 9.79679C22.4062 9.21064 21.7675 8.56048 21.2688 8.31627C20.8932 8.13234 20.726 8.10072 19.9984 8.07581C19.2042 8.04861 19.1475 8.03573 18.9119 7.82894C17.9246 6.96246 15.7331 6.6932 14.0919 7.23669C13.8212 7.32629 13.5228 7.46961 13.4285 7.55518C13.1943 7.76768 13.2008 8.13798 13.4429 8.36542C13.6559 8.56558 13.785 8.55941 14.7356 8.30347C15.441 8.11352 16.2624 8.0947 17.002 8.25151C17.6758 8.39437 17.948 8.54356 18.3731 9.00301L18.7283 9.38695L19.3705 9.28706C19.8932 9.20568 20.0879 9.20515 20.4166 9.28401C21.0806 9.44333 21.6386 10.0613 21.9017 10.9287C22.134 11.6949 22.0097 13.0535 21.6424 13.7628C21.3314 14.3635 21.369 14.3564 20.6481 13.9515C20.0044 13.5899 19.1559 12.8305 18.6039 12.1219C18.2197 11.6286 17.9256 11.6694 17.4431 12.2829C16.7816 13.1242 15.6841 13.8261 14.552 14.1319C13.8567 14.3197 12.1173 14.3187 11.429 14.1299C10.6912 13.9276 10.1507 13.6354 9.69803 13.194C9.29043 12.7967 8.90713 12.1077 8.79874 11.5776C8.75151 11.3463 8.76096 11.3243 8.88748 11.3729C9.21076 11.497 9.79302 11.5847 10.0577 11.5492C10.5688 11.4806 10.8639 11.2694 11.685 10.3846C12.5845 9.41522 12.6651 9.21841 12.3084 8.86167C11.9516 8.5047 11.7797 8.5841 10.8795 9.52227L10.0634 10.3727L9.6882 10.3283C9.48185 10.3039 9.08172 10.1789 8.79897 10.0507C8.17702 9.7686 7.9757 9.75992 7.73118 10.0046C7.56429 10.1715 7.54418 10.2561 7.54418 10.7924C7.54418 12.0423 8.00007 13.1671 8.85503 14.0267L9.36607 14.5405L9.00105 14.9057C7.86494 16.0421 8.37796 17.8886 9.93904 18.2818C10.2221 18.3531 10.2963 18.4076 10.3311 18.57C10.4708 19.2209 10.826 20.0496 11.2152 20.6328C11.6114 21.2264 11.6387 21.2933 11.5206 21.3814C11.4492 21.4345 11.1338 21.6457 10.8196 21.8505C9.90811 22.4448 9.02764 23.2716 8.29372 24.2223L8.09102 24.4848L7.77422 24.18C7.05439 23.4875 6.10658 22.0247 5.55982 20.7623C5.18154 19.8889 4.81645 19.6848 4.38684 20.1068C4.13654 20.3526 4.20319 20.685 4.71522 21.745C5.36139 23.0828 6.05585 24.0929 7.01098 25.0845C8.94827 27.0955 11.0789 28.2847 13.8159 28.8824C14.492 29.0301 14.8121 29.0513 16.3421 29.05C18.2994 29.0483 18.837 28.968 20.4093 28.4425C24.7689 26.9851 28.0621 23.2205 28.9502 18.6788C29.2805 16.9899 29.2191 14.813 28.7937 13.1319C27.5777 8.32534 23.6736 4.62659 18.7773 3.64217C17.7037 3.42632 15.5508 3.37123 14.4903 3.53253ZM19.6682 14.7454C19.9577 14.9327 20.3516 15.1555 20.5434 15.2404L20.8923 15.3947L20.8546 16.8158C20.8267 17.8673 20.7825 18.3459 20.6847 18.656C20.1681 20.2937 18.8734 21.5633 17.3079 21.9674C16.7001 22.1243 15.574 22.1265 14.971 21.9719C13.4688 21.587 12.213 20.4388 11.676 18.959C11.4818 18.4241 11.4677 18.2969 11.4433 16.875L11.4173 15.3606L11.7711 15.4136C11.9657 15.4428 12.5424 15.4662 13.0528 15.4655C14.9388 15.4631 16.3711 14.9302 17.7513 13.7175L18.094 13.4163L18.618 13.9106C18.906 14.1824 19.3787 14.5581 19.6682 14.7454ZM10.2102 16.3321C10.2102 16.8527 10.1816 17.1321 10.1282 17.1321C10.0831 17.1321 9.94597 17.0319 9.82348 16.9094C9.6412 16.7271 9.60083 16.6224 9.60083 16.3321C9.60083 16.0418 9.6412 15.9371 9.82348 15.7548C9.94597 15.6322 10.0831 15.532 10.1282 15.532C10.1816 15.532 10.2102 15.8114 10.2102 16.3321ZM22.4156 15.7544C22.6292 15.9452 22.6644 16.027 22.6644 16.3321C22.6644 16.6372 22.6292 16.7189 22.4156 16.9098C22.2788 17.0321 22.1332 17.1321 22.0919 17.1321C22.0475 17.1321 22.0169 16.8061 22.0169 16.3321C22.0169 15.8581 22.0475 15.532 22.0919 15.532C22.1332 15.532 22.2788 15.6321 22.4156 15.7544ZM21.3314 23.0422C21.6037 23.2427 22.0249 23.5959 22.2675 23.827C22.8427 24.3749 23.5704 25.3271 23.5005 25.4402C23.422 25.5671 22.134 26.4034 21.6014 26.6732C17.8233 28.5866 13.2423 28.2807 9.73977 25.8811C9.36881 25.627 9.04676 25.3888 9.0239 25.352C8.96838 25.2621 9.56686 24.4929 10.1331 23.9265C10.7109 23.3485 11.4309 22.8076 12.1126 22.4392L12.6429 22.1527L12.8548 22.2983C12.9713 22.3784 13.161 22.501 13.2761 22.5708C13.3913 22.6406 13.4856 22.7471 13.4856 22.8075C13.4856 23.1099 13.835 23.7976 14.1811 24.1764C15.1987 25.2901 16.7961 25.4097 18.0364 24.4652C18.4051 24.1845 18.8696 23.4394 18.9779 22.9552C19.059 22.5928 19.1174 22.5009 19.3829 22.3169L19.6931 22.1019L20.2647 22.3897C20.5791 22.548 21.0591 22.8416 21.3314 23.0422ZM17.5041 23.3229C17.3218 23.5984 16.6443 23.9136 16.2382 23.9117C15.8269 23.9097 15.3512 23.7108 15.0965 23.434L14.9174 23.2393L15.7821 23.2765C16.2577 23.2969 16.801 23.2809 16.9895 23.2409C17.1781 23.2009 17.3965 23.1644 17.4749 23.1598C17.6058 23.1521 17.6082 23.1655 17.5041 23.3229ZM30.0154 27.8377L31.042 28.8667L29.9572 29.9517L28.8724 31.0368L27.8373 30.0014L26.8021 28.9659L27.2815 28.5159C27.8657 27.9674 28.8249 26.9715 28.8597 26.8774C28.8737 26.8397 28.9085 26.8087 28.9369 26.8087C28.9655 26.8087 29.4507 27.2717 30.0154 27.8377ZM35.0167 31.3994C36.463 32.8507 37.4491 33.9004 37.5421 34.0877C37.763 34.5329 37.8582 35.1542 37.7799 35.6412C37.4969 37.4018 35.6556 38.3368 34.0752 37.5226C33.8205 37.3913 32.9921 36.6149 31.3486 34.9669L28.9878 32.5996L30.7767 30.809C31.7606 29.8241 32.5832 29.0183 32.6047 29.0183C32.6263 29.0183 33.7117 30.0898 35.0167 31.3994Z" fill="url(#paint0_linear_66_195)"/>
<defs>
<linearGradient id="paint0_linear_66_195" x1="4.74354e-07" y1="6.5" x2="39" y2="25.5" gradientUnits="userSpaceOnUse">
<stop stop-color="#5CA3FD"/>
<stop offset="1" stop-color="#9347E5"/>
</linearGradient>
</defs>
</svg>
