<svg width="19" height="19" viewBox="0 0 19 19" fill="none" xmlns="http://www.w3.org/2000/svg">
<path fill-rule="evenodd" clip-rule="evenodd" d="M9.06244 0.00411831C8.55238 0.0421233 8.3786 0.0596807 8.1028 0.101061C7.09644 0.252014 6.22813 0.523384 5.31582 0.972072C4.33593 1.45399 3.5449 2.02091 2.77232 2.79493C2.01432 3.55437 1.42499 4.3796 0.956549 5.33758C0.43571 6.40269 0.138387 7.47161 0.02296 8.69382C-0.00798364 9.02145 -0.00755703 9.97875 0.0236778 10.3137C0.178202 11.9707 0.713853 13.4731 1.62949 14.8176C1.74553 14.988 1.78871 15.1977 1.74944 15.4L1.4802 16.7874C1.29837 17.7243 1.12831 18.6 1.10228 18.7334C1.07627 18.8668 1.05491 18.9821 1.05485 18.9895C1.0548 18.997 1.25787 18.9331 1.5061 18.8474C1.75435 18.7617 2.38549 18.5445 2.90866 18.3647C3.43183 18.1849 4.06194 17.9682 4.30889 17.8832L4.66539 17.7604C4.72417 17.7402 4.78883 17.7463 4.84273 17.7773C4.8894 17.8041 5.08918 17.907 5.2867 18.006C7.69019 19.2101 10.529 19.326 13.0323 18.3221C13.5888 18.099 14.2905 17.7266 14.7989 17.3846C15.8042 16.7083 16.7137 15.7993 17.3899 14.7952C18.2922 13.4552 18.8202 11.9601 18.976 10.304C19.008 9.96438 19.008 9.0313 18.976 8.69382C18.7584 6.39468 17.8221 4.39041 16.2163 2.78626C15.4654 2.03613 14.6833 1.47064 13.7506 1.00344C12.6732 0.463786 11.5571 0.146438 10.334 0.0319771C10.1034 0.0104041 9.23388 -0.00864703 9.06244 0.00411831ZM10.4547 1.47485C11.7832 1.64411 12.9947 2.10173 14.0627 2.83756C14.8324 3.36792 15.5515 4.07273 16.0871 4.82175C16.9176 5.98314 17.4315 7.38019 17.5545 8.81022C17.5802 9.1098 17.5802 9.88776 17.5545 10.1876C17.4667 11.2107 17.2067 12.1332 16.7397 13.0783C16.3368 13.8938 15.8724 14.5377 15.207 15.2036C13.9049 16.5067 12.2966 17.2892 10.434 17.5257C10.0519 17.5742 8.93923 17.5738 8.56742 17.5251C7.34342 17.3645 6.27099 16.9871 5.24329 16.3551C5.08032 16.2549 4.93683 16.1728 4.9244 16.1728C4.912 16.1727 4.45823 16.3251 3.91605 16.5116C3.37386 16.698 2.9283 16.8486 2.92592 16.8462C2.92054 16.8408 2.91539 16.868 3.14025 15.7133C3.24244 15.1886 3.32578 14.7477 3.32547 14.7336C3.32517 14.7194 3.24582 14.6075 3.14916 14.4848C2.22691 13.3141 1.66 11.9484 1.46735 10.4331C1.41818 10.0464 1.41898 8.93974 1.46871 8.55802C1.63785 7.25974 2.0572 6.11128 2.74027 5.07568C3.06466 4.58389 3.35835 4.22644 3.80063 3.7851C4.43717 3.14994 5.07382 2.68932 5.87878 2.28155C6.73886 1.84588 7.71447 1.55809 8.63537 1.46843C8.75281 1.45698 8.87511 1.44414 8.90714 1.43989C9.0638 1.41907 10.2224 1.44524 10.4547 1.47485ZM5.79187 4.8065C5.53219 4.83655 5.3443 4.96923 5.05843 5.32445C4.91225 5.50607 4.65583 5.89276 4.57144 6.05884C4.54879 6.10341 4.50657 6.2169 4.47762 6.31105C4.42822 6.4717 4.42494 6.5054 4.42416 6.8605C4.42348 7.17094 4.43144 7.28579 4.46844 7.50071C4.53596 7.89282 4.62195 8.25931 4.69792 8.47859C4.91363 9.1013 5.38295 9.83447 6.1009 10.6703C6.54663 11.1892 7.34901 12.0194 7.67633 12.3003C8.46162 12.9743 9.64952 13.5888 10.8843 13.9598C11.2406 14.0668 11.6657 14.1592 11.9641 14.1946C12.7101 14.2828 13.4298 14.0075 14.0808 13.3848C14.3012 13.174 14.3709 13.0695 14.4468 12.8358C14.5442 12.5362 14.606 12.0905 14.577 11.897C14.5505 11.7209 14.5379 11.7129 13.4497 11.1758C12.9052 10.907 12.4052 10.6675 12.3386 10.6434C12.1936 10.5911 12.0724 10.5967 11.9375 10.662C11.8666 10.6963 11.8023 10.7601 11.6482 10.9492C11.2673 11.4167 10.98 11.7594 10.9338 11.8014C10.805 11.9185 10.6611 11.9179 10.3825 11.7991C9.91392 11.5992 9.34342 11.2995 9.03333 11.0904C8.47748 10.7156 7.95156 10.1555 7.28877 9.23254C7.05674 8.90945 7.01543 8.82752 7.01484 8.68936C7.01418 8.53022 7.06173 8.44189 7.2735 8.20881C7.62355 7.82358 7.76023 7.63208 7.79968 7.47161C7.80754 7.43959 7.81326 7.35843 7.81237 7.29122C7.8106 7.15655 7.77329 7.05155 7.48016 6.35609C7.39246 6.14803 7.30005 5.9265 7.27482 5.86379C7.24958 5.80111 7.15801 5.58969 7.07134 5.39398C6.86529 4.92874 6.80694 4.87219 6.47087 4.81207C6.30945 4.7832 6.01422 4.78078 5.79187 4.8065Z" fill="url(#paint0_linear_133_417)"/>
<defs>
<linearGradient id="paint0_linear_133_417" x1="0.730768" y1="9.54703e-06" x2="24.7186" y2="2.64682" gradientUnits="userSpaceOnUse">
<stop stop-color="#55ADFF"/>
<stop offset="1" stop-color="#A528DD"/>
</linearGradient>
</defs>
</svg>
