<svg width="30" height="30" viewBox="0 0 30 30" fill="none" xmlns="http://www.w3.org/2000/svg">
<path fill-rule="evenodd" clip-rule="evenodd" d="M12.9198 0.105336C11.342 0.334231 9.55083 0.906792 8.13399 1.6351C6.42476 2.51382 4.48749 4.09054 3.34906 5.5297C3.22614 5.68508 3.2489 5.91001 3.40045 6.03763L3.65738 6.25397C3.94832 6.49895 4.20807 6.69935 4.23459 6.69935C4.2611 6.69935 4.36889 6.59381 4.47416 6.4649C5.6569 5.01615 7.43076 3.60123 9.04315 2.82055C10.9048 1.91911 12.5329 1.52026 14.613 1.45584C20.3617 1.2778 25.4518 4.61931 27.6106 9.98842C28.2877 11.6725 28.5921 13.4555 28.5332 15.392C28.471 17.435 28.1057 18.9769 27.2513 20.8024C26.8057 21.7546 26.8573 21.7319 26.2527 21.2428C25.9681 21.0127 25.7231 20.8364 25.7083 20.8513C25.6743 20.8852 25.0967 25.0466 25.1223 25.0722C25.1461 25.096 28.9663 23.5529 29.0222 23.4967C29.0522 23.4668 28.2604 22.7786 27.9962 22.6049C27.9859 22.5982 28.1381 22.2873 28.3343 21.914C29.0714 20.5117 29.6544 18.6725 29.8872 17.0151C30.0959 15.5288 30.0084 13.3268 29.6794 11.7851C28.957 8.4008 26.9853 5.26257 24.232 3.11494C22.1584 1.49746 19.4826 0.398001 16.8125 0.0663094C15.9754 -0.0376418 13.7517 -0.0154232 12.9198 0.105336ZM13.7124 4.22371C12.6983 4.32853 11.2183 4.77282 10.2178 5.27267C8.45246 6.15471 6.77811 7.73273 5.73695 9.49586C2.75867 14.5395 4.3065 20.9369 9.28113 24.1445C10.3323 24.8223 11.5643 25.3178 12.9198 25.6079C13.9201 25.822 15.8594 25.842 16.8466 25.6485C20.6545 24.9022 23.4868 22.6616 24.945 19.242C25.5782 17.7571 25.861 16.1966 25.7974 14.5379C25.7341 12.8879 25.4035 11.5654 24.6993 10.146C24.1381 9.01506 23.6586 8.35665 22.6854 7.38091C21.0327 5.72382 19.0845 4.71418 16.7781 4.31936C15.9871 4.18403 14.5345 4.13866 13.7124 4.22371ZM16.3062 5.72224C17.9786 5.97652 19.3458 6.54779 20.7014 7.55873C23.8325 9.89385 25.1351 14.0984 23.9056 17.901C22.8765 21.0837 20.1053 23.5137 16.7386 24.1856C13.8882 24.7544 10.8254 23.8466 8.66076 21.7915C6.9573 20.1743 5.96579 18.151 5.71296 15.7764C5.52591 14.0197 6.01147 11.8907 6.97423 10.246C8.8958 6.96337 12.6143 5.16086 16.3062 5.72224ZM14.8652 6.31911C14.8057 6.34176 14.7333 6.39601 14.7042 6.43965C14.6212 6.56394 14.6387 9.0701 14.7236 9.22895C14.8081 9.38707 15.1461 9.41903 15.2831 9.2819C15.3443 9.22058 15.3696 8.79035 15.3696 7.80559C15.3696 6.50544 15.3606 6.41108 15.2302 6.34118C15.0784 6.25988 15.0285 6.25685 14.8652 6.31911ZM2.2329 7.11414C1.61433 8.14161 0.684641 10.1895 0.803455 10.2631C0.930051 10.3414 1.9805 10.7391 2.06084 10.7391C2.10998 10.7391 2.2097 10.5686 2.28247 10.3604C2.46448 9.83945 3.19185 8.32744 3.4691 7.89352C3.59447 7.69731 3.69592 7.50254 3.69456 7.4607C3.69232 7.39527 2.61723 6.69935 2.5183 6.69935C2.4987 6.69935 2.37023 6.88604 2.2329 7.11414ZM11.2446 11.1056C11.1736 11.147 11.1185 11.2645 11.1185 11.3744C11.1185 11.5337 11.4673 11.9188 13.0103 13.4628C14.225 14.6783 14.9539 15.3559 15.0465 15.3559C15.1378 15.3559 15.6872 14.8585 16.5411 14.0026C17.9173 12.6234 18.0467 12.4384 17.8049 12.1963C17.5679 11.959 17.3731 12.0892 16.1808 13.2812C15.5337 13.9283 14.4845 13.9281 13.8377 13.2808L13.2974 12.7402C12.356 11.7983 11.5373 11.0287 11.4782 11.0298C11.4191 11.031 11.3139 11.0651 11.2446 11.1056ZM0.424892 11.4424C0.295414 11.8562 0.0838688 13.4438 0.0452488 14.2919L0.0333438 14.5529C0.0151796 14.951 0.333099 15.2838 0.731691 15.2838H1.07434C1.28924 15.2838 1.46345 15.1096 1.46345 14.8947C1.46345 14.3265 1.59365 13.108 1.73408 12.3622C1.80131 12.0051 1.85708 11.6819 1.85801 11.6438C1.85895 11.6059 1.58414 11.5181 1.2473 11.4488C0.477347 11.2904 0.472519 11.2904 0.424892 11.4424ZM6.44948 14.7211C6.3125 14.8583 6.34442 15.1967 6.50236 15.2813C6.58371 15.3248 7.1834 15.3559 7.94175 15.3559H9.02272C9.15942 15.3559 9.2869 15.287 9.36176 15.1726C9.45781 15.0258 9.46566 14.954 9.40096 14.8119C9.35181 14.7039 9.24407 14.6346 9.12538 14.6346H7.92806C6.94138 14.6346 6.51079 14.6597 6.44948 14.7211ZM20.7173 14.7197C20.5791 14.858 20.6101 15.1962 20.7687 15.2813C20.8499 15.3248 21.4468 15.3559 22.1986 15.3559C23.404 15.3559 23.4979 15.3463 23.6215 15.2095C23.7264 15.0934 23.7396 15.0222 23.685 14.8668C23.6437 14.749 23.5331 14.6695 23.4082 14.6677L22.2107 14.6511C21.1783 14.6368 20.7819 14.655 20.7173 14.7197ZM0.693936 16.2489C0.409401 16.2934 0.15412 16.3527 0.12674 16.3807C-0.0506531 16.5618 0.79661 20.1885 1.01644 20.189C1.10456 20.1892 2.26561 19.8324 2.31533 19.7898C2.32815 19.7789 2.25416 19.5023 2.15098 19.1752C1.92437 18.4569 1.72003 17.5482 1.60453 16.7446C1.50726 16.0682 1.58393 16.1099 0.693936 16.2489ZM14.8092 20.6622C14.6538 20.7711 14.649 20.8129 14.649 22.0736C14.649 22.8312 14.6802 23.4309 14.7236 23.5123C14.8081 23.6704 15.1461 23.7024 15.2831 23.5653C15.3443 23.504 15.3696 23.0737 15.3696 22.089C15.3696 20.7888 15.3606 20.6945 15.2302 20.6246C15.0453 20.5255 14.9981 20.5297 14.8092 20.6622ZM1.94981 20.9151C1.64265 21.0722 1.3914 21.222 1.3914 21.2479C1.3914 21.2737 1.57283 21.6385 1.79454 22.0586C2.12511 22.6847 2.82791 23.761 3.37183 24.4739C3.47148 24.6046 3.50131 24.5919 4.03695 24.1922C4.3454 23.962 4.61092 23.7629 4.62699 23.7496C4.64305 23.7364 4.5117 23.5385 4.33503 23.31C3.9471 22.8081 3.39446 21.9396 2.98044 21.1811C2.81263 20.8736 2.63769 20.6236 2.59179 20.6256C2.54583 20.6276 2.2569 20.7579 1.94981 20.9151ZM4.7151 24.8551C4.47222 25.1202 4.2735 25.3778 4.2735 25.4277C4.2735 25.6351 7.01285 27.8279 7.27952 27.8339C7.37038 27.8359 8.09227 26.8171 8.09227 26.6868C8.09227 26.6463 8.00055 26.5657 7.88851 26.5077C7.52666 26.3204 6.48788 25.5227 5.84741 24.9403C5.50429 24.6284 5.20859 24.3732 5.19022 24.3732C5.17184 24.3732 4.95807 24.5901 4.7151 24.8551ZM8.63223 27.6014C8.52105 27.8692 8.40267 28.1192 8.36924 28.1569C8.18594 28.3635 8.32334 28.4718 9.22709 28.8329C9.9995 29.1415 11.7855 29.7114 11.98 29.7114C12.0361 29.7114 12.3434 28.5917 12.3434 28.3873C12.3434 28.3191 12.1667 28.2415 11.821 28.1577C11.164 27.9987 10.0793 27.6249 9.43655 27.336C9.16534 27.2142 8.91893 27.1145 8.88895 27.1145C8.85898 27.1145 8.74341 27.3336 8.63223 27.6014ZM13.1838 28.8534C13.1582 29.0675 13.1369 29.3919 13.1366 29.5744C13.1362 29.7613 13.2806 29.9166 13.467 29.9298L13.7955 29.9531C14.1582 29.9789 14.7418 30 15.0924 30C15.4445 30 15.7298 29.7146 15.7298 29.3626V29.2786V29.0076C15.7298 28.7588 15.5283 28.5571 15.2795 28.5569C15.0318 28.5567 14.4695 28.5358 14.0298 28.5105L13.6218 28.4869C13.4019 28.4742 13.2101 28.6348 13.1838 28.8534Z" fill="url(#paint0_linear_360_140)"/>
<defs>
<linearGradient id="paint0_linear_360_140" x1="1.15384" y1="1.50743e-05" x2="39.0294" y2="4.17919" gradientUnits="userSpaceOnUse">
<stop stop-color="#55ADFF"/>
<stop offset="1" stop-color="#A528DD"/>
</linearGradient>
</defs>
</svg>
