<svg width="19" height="21" viewBox="0 0 19 21" fill="none" xmlns="http://www.w3.org/2000/svg">
<path fill-rule="evenodd" clip-rule="evenodd" d="M14.75 2.75C13.8525 2.75 13.125 3.47754 13.125 4.375C13.125 4.65549 13.1961 4.91939 13.3212 5.14966C13.3302 5.16355 13.339 5.17774 13.3474 5.19222C13.3558 5.2066 13.3638 5.2211 13.3714 5.2357C13.6586 5.69471 14.1686 6 14.75 6C15.6475 6 16.375 5.27246 16.375 4.375C16.375 3.47754 15.6475 2.75 14.75 2.75ZM12.2438 6.9941C12.8948 7.6172 13.7777 8 14.75 8C16.752 8 18.375 6.37703 18.375 4.375C18.375 2.37297 16.752 0.75 14.75 0.75C12.748 0.75 11.125 2.37297 11.125 4.375C11.125 4.68275 11.1633 4.98154 11.2355 5.26686L6.75619 7.8809C6.10519 7.2578 5.2223 6.875 4.25 6.875C2.24797 6.875 0.625 8.49797 0.625 10.5C0.625 12.502 2.24797 14.125 4.25 14.125C5.2225 14.125 6.10556 13.742 6.7566 13.1187L11.2365 15.7293C11.1637 16.0157 11.125 16.3159 11.125 16.625C11.125 18.627 12.748 20.25 14.75 20.25C16.752 20.25 18.375 18.627 18.375 16.625C18.375 14.623 16.752 13 14.75 13C13.7791 13 12.8974 13.3817 12.2467 14.0031L7.76461 11.3913C7.8367 11.1062 7.875 10.8075 7.875 10.5C7.875 10.1923 7.83665 9.89346 7.76447 9.60814L12.2438 6.9941ZM5.6286 9.6393C5.63619 9.65391 5.64417 9.6684 5.65256 9.68278C5.66101 9.69726 5.66977 9.71145 5.67882 9.72534C5.80393 9.95561 5.875 10.2195 5.875 10.5C5.875 10.7805 5.80394 11.0444 5.67883 11.2747C5.66966 11.2887 5.66079 11.3031 5.65224 11.3178C5.64396 11.332 5.63607 11.3463 5.62857 11.3607C5.34139 11.8197 4.83134 12.125 4.25 12.125C3.35254 12.125 2.625 11.3975 2.625 10.5C2.625 9.60254 3.35254 8.875 4.25 8.875C4.83136 8.875 5.34142 9.18029 5.6286 9.6393ZM13.125 16.625C13.125 16.3646 13.1862 16.1186 13.2951 15.9005C13.317 15.8709 13.3375 15.8398 13.3565 15.8072C13.3746 15.7761 13.3909 15.7445 13.4053 15.7123C13.6977 15.2824 14.1909 15 14.75 15C15.6475 15 16.375 15.7275 16.375 16.625C16.375 17.5225 15.6475 18.25 14.75 18.25C13.8525 18.25 13.125 17.5225 13.125 16.625Z" fill="url(#paint0_linear_360_215)"/>
<defs>
<linearGradient id="paint0_linear_360_215" x1="9.5" y1="0.75" x2="9.5" y2="20.25" gradientUnits="userSpaceOnUse">
<stop stop-color="#59A7FE"/>
<stop offset="1" stop-color="#9249E6"/>
</linearGradient>
</defs>
</svg>
