<svg width="25" height="27" viewBox="0 0 25 27" fill="none" xmlns="http://www.w3.org/2000/svg">
<path fill-rule="evenodd" clip-rule="evenodd" d="M1.53487 0.0619246C1.14733 0.200009 0.891689 0.353342 0.639732 0.598854C0.322753 0.907789 0.131423 1.27856 0.0575601 1.72706C-0.0188839 2.19107 -0.0193233 22.7676 0.0570658 23.2754C0.16289 23.9786 0.694868 24.6421 1.35958 24.9C1.67096 25.0209 1.70792 25.0227 4.1226 25.0377C6.54174 25.0527 6.57178 25.0516 6.71741 24.9415C6.8971 24.8057 6.91627 24.5412 6.75987 24.3556L6.65497 24.231L4.19251 24.2046C1.43619 24.1751 1.55882 24.1924 1.19296 23.7817C1.08774 23.6636 0.973241 23.4672 0.938424 23.345C0.891415 23.18 0.879168 20.3659 0.890756 12.3854C0.905364 2.34477 0.912503 1.63715 1.00086 1.48202C1.132 1.25176 1.38171 1.02234 1.63015 0.903779C1.83203 0.807484 2.08217 0.803157 8.25146 0.789438L14.663 0.775192L14.6636 2.13493C14.6644 3.59966 14.6992 3.85578 14.955 4.27367C15.127 4.5548 15.4489 4.86616 15.7339 5.02715C16.1692 5.27308 16.499 5.31503 17.997 5.31503H19.3858V8.82623V12.3375L19.5206 12.467C19.6924 12.6321 19.903 12.6321 20.0747 12.467L20.2096 12.3375V8.72271C20.2096 5.16829 20.2076 5.10281 20.0929 4.80258C19.9842 4.51818 19.8271 4.35335 17.8063 2.40424C16.301 0.952375 15.5504 0.265489 15.3556 0.161755L15.0749 0.0122206L8.40248 0.00230093C2.99719 -0.00571924 1.69303 0.00562508 1.53487 0.0619246ZM17.6426 4.45925C16.4282 4.47581 16.2511 4.44284 15.9273 4.14013C15.5762 3.81204 15.5442 3.67264 15.5429 2.46608L15.5416 1.38478L17.1347 2.91457L18.7277 4.44442L17.6426 4.45925ZM3.21285 4.53454C2.93492 4.68766 2.88478 4.97824 3.10055 5.18549L3.23531 5.31503H6.75498H10.2746L10.4094 5.18549C10.6259 4.97755 10.5843 4.67901 10.3206 4.548C10.189 4.48262 9.64162 4.47107 6.744 4.47238C4.27401 4.47355 3.29215 4.49085 3.21285 4.53454ZM3.07973 7.40613C2.92855 7.59075 2.93574 7.77094 3.10055 7.92924L3.23531 8.05877H10.1299C16.9216 8.05877 17.026 8.05724 17.1329 7.95456C17.3039 7.7902 17.3304 7.59677 17.2041 7.4342L17.0949 7.29369L10.1443 7.28029L3.19369 7.26689L3.07973 7.40613ZM3.10055 9.824C2.9358 9.98224 2.92855 10.1625 3.07957 10.3469L3.19336 10.4859H10.1324H17.0714L17.1895 10.3417C17.3313 10.1684 17.3046 9.92768 17.128 9.7868C17.0191 9.69995 16.6035 9.69447 10.1238 9.69447H3.23531L3.10055 9.824ZM7.22177 13.4334C7.13116 13.4872 7.0177 13.5761 6.96965 13.631C6.9216 13.686 6.07159 15.0478 5.08068 16.6573C3.10225 19.8709 3.12416 19.8252 3.34855 20.2706C3.45663 20.485 3.54213 20.5532 4.11041 20.8782C4.46248 21.0796 4.8693 21.2724 5.01445 21.3068C5.33198 21.3821 5.76384 21.341 6.04117 21.2092C6.24683 21.1114 6.37056 21.11 6.37056 21.2055C6.37056 21.2344 6.27089 21.3917 6.14908 21.5551C5.87642 21.9209 5.74588 22.3219 5.79564 22.6405C5.85039 22.9913 6.11459 23.3934 6.40768 23.572C6.67529 23.735 7.17004 23.8612 7.3221 23.8051C7.38509 23.7819 7.41398 23.7986 7.41398 23.8581C7.41398 23.9983 7.61508 24.337 7.80877 24.5231C8.04766 24.7526 8.37271 24.888 8.68821 24.8894C8.94319 24.8906 8.94797 24.8938 9.0617 25.1412C9.29982 25.6591 9.75337 25.963 10.2971 25.9688C10.4783 25.9707 10.6917 25.9547 10.7712 25.9332C10.8968 25.8993 10.9247 25.9148 10.9839 26.0522C11.1249 26.3793 11.598 26.677 12.0469 26.7212C12.4166 26.7575 12.7349 26.6703 13.0348 26.4504L13.2781 26.2719L13.7371 26.5383C14.4098 26.9287 14.5941 26.9987 14.953 27C15.3018 27.0013 15.5546 26.9192 15.8348 26.7139C16.026 26.5738 16.3105 26.1301 16.3105 25.9721C16.3105 25.9026 16.34 25.8888 16.434 25.9146C16.7734 26.0073 17.0732 26.039 17.2715 26.0031C17.8019 25.9071 18.2178 25.558 18.3772 25.0753L18.4643 24.8114L18.8015 24.8083C19.3792 24.803 19.8903 24.4618 20.077 23.9566L20.1712 23.702L20.616 23.7021C21.1325 23.7023 21.3958 23.5977 21.6907 23.275C21.9428 22.999 22.0386 22.753 22.0406 22.3757C22.042 22.1258 22.0092 21.989 21.8989 21.7848L21.7554 21.5191L22.0023 21.3801C22.2351 21.249 22.2649 21.2447 22.5259 21.3049C22.9344 21.399 23.2841 21.3386 23.7684 21.0902C24.7586 20.5824 25 20.3446 25 19.8771C25 19.6301 24.9118 19.4735 23.2857 16.8321C22.3428 15.3006 21.4897 13.9266 21.3899 13.7789C21.011 13.2178 20.5541 13.1918 19.689 13.682C19.3876 13.8528 19.053 14.0771 18.9453 14.1805C18.581 14.5306 18.3936 15.0971 18.497 15.5358L18.5493 15.7577L18.3136 15.7917C18.0082 15.8357 17.8277 15.7953 17.1617 15.5339C16.3686 15.2227 16.0015 15.215 14.9305 15.4871L14.127 15.6912L13.8174 15.5408C13.374 15.3254 12.888 15.2164 12.5584 15.2584C12.4087 15.2775 11.9498 15.4128 11.5387 15.5593C10.6996 15.8581 10.4861 15.8725 10.0306 15.6606L9.77539 15.5419V15.2658C9.77539 14.5937 9.44315 14.1661 8.5312 13.6646C8.01696 13.3817 7.89378 13.3353 7.6594 13.3354C7.48993 13.3355 7.32408 13.3727 7.22177 13.4334ZM8.21027 14.4315C8.39149 14.5339 8.60814 14.6782 8.69167 14.7522C8.88728 14.9255 8.97812 15.2355 8.8998 15.4624C8.86795 15.5548 8.19127 16.6852 7.39618 17.9743C5.83024 20.5131 5.83183 20.5111 5.36196 20.5111C5.20507 20.5111 5.01687 20.4391 4.65672 20.241C4.38648 20.0925 4.1539 19.942 4.13979 19.9068C4.12068 19.8589 6.51516 15.9019 7.53348 14.2985C7.656 14.1056 7.62085 14.0986 8.21027 14.4315ZM22.3977 17.0079C23.3747 18.5925 24.1531 19.9066 24.1276 19.9281C24.1021 19.9496 23.8835 20.0816 23.6419 20.2214C23.3105 20.4132 23.135 20.4807 22.9279 20.4963C22.4764 20.5303 22.3877 20.4439 21.6597 19.2605C20.8097 17.8787 20.805 17.8729 20.5403 17.8729C20.2797 17.8729 20.0739 18.0788 20.1189 18.2947C20.1341 18.368 20.4596 18.934 20.8421 19.5526C21.2246 20.1712 21.5292 20.6843 21.5189 20.6927C21.3946 20.7942 21.0094 20.9884 20.9573 20.9759C20.9199 20.967 19.6288 20.2414 18.0882 19.3635C16.431 18.4192 15.2325 17.7681 15.1535 17.7691C14.907 17.7721 14.7179 17.9998 14.7179 18.2932C14.7179 18.7303 14.2647 19.192 13.8357 19.192C13.7342 19.192 13.7294 19.1451 13.7294 18.1473C13.7294 17.1053 13.7298 17.102 13.8757 16.8858C14.0771 16.5873 14.2861 16.493 15.2538 16.2644C16.2055 16.0394 16.1224 16.0337 17.0959 16.3925C17.6049 16.5802 17.7493 16.6113 18.1132 16.6121C18.3465 16.6126 18.6063 16.5878 18.6906 16.557C18.9257 16.4711 18.9644 16.4859 19.099 16.7122C19.3167 17.0787 19.614 17.1713 19.8487 16.9458C20.0406 16.7613 20.0146 16.6317 19.6661 16.0359C19.1504 15.1545 19.2002 14.9413 20.0379 14.443C20.3287 14.2701 20.5789 14.1282 20.594 14.1277C20.6091 14.1272 21.4207 15.4233 22.3977 17.0079ZM13.1171 16.1369C13.2122 16.1687 13.2901 16.2033 13.2901 16.2136C13.2901 16.224 13.2282 16.3202 13.1525 16.4273C12.8961 16.7903 12.8507 17.0623 12.8507 18.2352C12.8507 19.4643 12.8936 19.6321 13.2702 19.8771C13.834 20.2439 14.9043 19.8474 15.3579 19.1038C15.4365 18.9749 15.5286 18.8796 15.5625 18.8921C15.7207 18.9505 20.9631 21.9543 21.0512 22.0372C21.1063 22.089 21.165 22.2287 21.1816 22.3476C21.2082 22.5378 21.1916 22.5832 21.0444 22.7247C20.7286 23.0282 20.6837 23.0115 18.5594 21.8039C16.554 20.6637 16.4263 20.6109 16.2006 20.8277C16.0537 20.9689 16.0556 21.2556 16.2042 21.3848C16.2665 21.439 16.9522 21.8433 17.7281 22.2833C18.9419 22.9716 19.1527 23.1098 19.2392 23.2742C19.4225 23.6229 19.1806 23.9936 18.7696 23.9936C18.6346 23.9936 18.2138 23.7802 17.1064 23.1501C16.2911 22.6862 15.5717 22.3063 15.5079 22.3059C15.444 22.3054 15.3266 22.3544 15.247 22.4145C15.0708 22.5476 15.0438 22.8737 15.1984 23.0012C15.2512 23.0449 15.7818 23.3574 16.3774 23.6957C16.973 24.0341 17.4858 24.3567 17.5169 24.4126C17.6175 24.5933 17.5832 24.874 17.441 25.0327C17.3331 25.1532 17.2642 25.1805 17.0704 25.1794C16.8685 25.1781 16.6983 25.1009 15.9535 24.6728C14.61 23.9003 14.5955 23.8953 14.3585 24.1231C14.0739 24.3964 14.2186 24.6454 14.8748 25.0117C15.1159 25.1463 15.3522 25.31 15.4 25.3754C15.5112 25.528 15.5111 25.8083 15.3999 25.9715C15.2999 26.118 15.003 26.229 14.8499 26.1772C14.7381 26.1393 13.7843 25.6252 13.7843 25.6028C13.7843 25.5954 13.8227 25.5012 13.8696 25.3933C14.1621 24.7208 13.7682 23.8691 13.0493 23.6192L12.8766 23.5593L12.8769 23.1301C12.877 22.6317 12.7686 22.3793 12.4324 22.0957C12.1642 21.8695 11.9113 21.7718 11.5873 21.7694C11.3263 21.7675 11.3232 21.7653 11.2294 21.5295C10.9055 20.7147 9.8475 20.4052 9.13155 20.9158L8.95444 21.0421L8.75735 20.8325C8.48057 20.5381 8.16941 20.4056 7.75474 20.4056C7.56851 20.4056 7.31524 20.4444 7.19184 20.4919C7.03637 20.5517 6.94993 20.5613 6.91028 20.5232C6.87069 20.4851 7.24527 19.831 8.13042 18.3923C8.83292 17.2506 9.41553 16.3073 9.42508 16.2961C9.43464 16.2849 9.5001 16.312 9.57056 16.3563C9.81263 16.5088 10.2309 16.6104 10.6239 16.6124C11.0202 16.6144 11.0356 16.6104 12.1643 16.2157C12.583 16.0692 12.8493 16.0472 13.1171 16.1369ZM8.11587 21.3727C8.18479 21.4388 8.2547 21.5748 8.27123 21.6748C8.29649 21.8273 8.26299 21.9116 8.06359 22.1978C7.71207 22.7022 7.40799 22.9911 7.22847 22.9911C6.9038 22.9911 6.64514 22.7469 6.64514 22.4405C6.64514 22.2376 7.32468 21.3361 7.5449 21.2469C7.71459 21.1781 7.97237 21.2349 8.11587 21.3727ZM10.1305 21.5359C10.3561 21.6265 10.5102 21.8826 10.4631 22.0887C10.4448 22.1685 10.1398 22.6231 9.78523 23.099C9.25577 23.8094 9.10503 23.977 8.94193 24.0366C8.58453 24.1673 8.23773 23.9149 8.23773 23.5241C8.23773 23.4207 8.41324 23.1394 8.82039 22.59C9.4828 21.6963 9.63311 21.5281 9.7967 21.4972C9.86046 21.4851 9.91966 21.472 9.92817 21.4681C9.93669 21.4641 10.0277 21.4947 10.1305 21.5359ZM11.9034 22.7548C11.9857 22.8458 12.027 22.9595 12.027 23.0954C12.027 23.2698 11.943 23.4129 11.4483 24.0818C11.13 24.5121 10.796 24.9295 10.706 25.0093C10.4907 25.2004 10.229 25.2035 9.99929 25.0178C9.86024 24.9054 9.83037 24.8423 9.8307 24.6616C9.83108 24.4652 9.90137 24.3484 10.4966 23.5542C10.8626 23.0658 11.2145 22.6447 11.2787 22.6184C11.4703 22.5401 11.768 22.605 11.9034 22.7548ZM12.8537 24.4173C13.0142 24.4998 13.1412 24.7747 13.1032 24.9571C13.0647 25.1421 12.618 25.7623 12.4677 25.8396C12.2814 25.9354 11.9888 25.9019 11.8241 25.7658C11.6989 25.6623 11.67 25.5951 11.67 25.4075C11.67 25.2112 11.7137 25.1198 11.9607 24.7997C12.1206 24.5925 12.2812 24.4113 12.3177 24.3971C12.4376 24.3503 12.7462 24.3619 12.8537 24.4173Z" fill="url(#paint0_linear_128_48)"/>
<defs>
<linearGradient id="paint0_linear_128_48" x1="0.961537" y1="1.35668e-05" x2="32.5788" y2="3.23023" gradientUnits="userSpaceOnUse">
<stop stop-color="#55ADFF"/>
<stop offset="1" stop-color="#A528DD"/>
</linearGradient>
</defs>
</svg>
