<svg width="25" height="25" viewBox="0 0 25 25" fill="none" xmlns="http://www.w3.org/2000/svg">
<path fill-rule="evenodd" clip-rule="evenodd" d="M12.1244 0.109977C11.4475 0.502402 11.4585 1.65997 12.1425 2.0241C12.6738 2.30692 13.3556 2.11774 13.6066 1.61799C13.9653 0.903863 13.5347 0.0817768 12.7629 0.00739844C12.5088 -0.0170597 12.2801 0.0196276 12.1244 0.109977ZM4.16667 3.19307C3.89681 3.33343 3.9164 3.27859 2.34131 8.30118L1.11746 12.204L0.846808 12.19C0.154255 12.1543 0 12.2957 0 12.967C0 14.7433 1.34087 16.4936 3.1305 17.0531C3.98254 17.3196 5.19982 17.2591 6.03848 16.9087C7.56197 16.2722 8.60754 14.808 8.74823 13.114C8.79175 12.5898 8.7758 12.5006 8.61099 12.348C8.48644 12.2327 8.29202 12.1752 8.02677 12.1752H7.62917L7.39947 11.4354C7.0031 10.1585 5.21942 4.52048 5.16959 4.38687C5.12934 4.27891 5.65284 4.26312 8.59805 4.28329L12.074 4.3072L12.0762 12.7945L12.0783 21.2819L10.3215 21.3067C8.84353 21.3275 8.53927 21.3552 8.4047 21.4806C8.18936 21.6811 8.20239 22.0813 8.43121 22.2944C8.60745 22.4587 8.82553 22.4698 12.3984 22.4955C14.4777 22.5105 16.3074 22.4985 16.4644 22.4691C16.8316 22.4001 17.0213 22.2004 17.0213 21.8828C17.0213 21.3671 16.8736 21.3275 14.9527 21.3275H13.2083L13.2309 12.8174L13.2535 4.3072L16.5115 4.28329C18.3035 4.27005 19.7695 4.28009 19.7695 4.30546C19.7695 4.35246 19.1777 6.24122 18.0819 9.69164C17.7472 10.7457 17.447 11.7211 17.415 11.8591C17.3618 12.0879 17.3204 12.1102 16.9452 12.1114C16.2543 12.1138 16.0936 12.3583 16.2145 13.2227C16.5407 15.555 18.3534 17.1757 20.6117 17.1544C21.8572 17.1425 23.1228 16.5599 23.9013 15.6399C24.489 14.9454 25 13.6031 25 12.7539C25 12.3435 24.8029 12.1678 24.282 12.1135L23.8107 12.0644L23.5571 11.2431C21.86 5.7474 21.0771 3.37852 20.9104 3.23487C20.7368 3.08529 20.2074 3.07525 12.5567 3.07653C6.15674 3.07754 4.34034 3.10282 4.16667 3.19307ZM21.5735 8.73339C22.084 10.3647 22.528 11.7918 22.56 11.9047L22.6184 12.1101H20.5638C18.9569 12.1101 18.5186 12.0853 18.5516 11.996C18.5747 11.9333 19.0193 10.5267 19.5395 8.87029C20.6143 5.44751 20.5784 5.55402 20.6166 5.67612C20.6323 5.72632 21.0629 7.10209 21.5735 8.73339ZM6.33981 11.9338L6.38998 12.1682L4.38386 12.1684L2.37784 12.1686L2.42837 11.9086C2.45612 11.7657 2.90594 10.3048 3.42793 8.66239L4.37704 5.67612L5.33333 8.68776C5.85931 10.3442 6.31223 11.8049 6.33981 11.9338ZM7.50638 13.628C7.37163 14.4831 6.48156 15.4817 5.52624 15.8496C5.01215 16.0476 4.10683 16.11 3.58599 15.9834C3.12358 15.871 2.31055 15.3783 1.99619 15.0201C1.67278 14.6517 1.30567 13.9658 1.2078 13.5475L1.14911 13.2965H4.3539H7.55869L7.50638 13.628ZM23.719 13.5475C23.507 14.4469 22.8278 15.2556 21.915 15.6957C21.3943 15.9465 21.2277 15.9819 20.5674 15.9809C19.9423 15.9801 19.7275 15.9391 19.3069 15.7397C18.4366 15.3273 17.6178 14.371 17.4298 13.5475L17.3725 13.2965H20.5753H23.7781L23.719 13.5475ZM5.98617 24.0068C5.78129 24.1611 5.76747 24.6573 5.9625 24.8581C6.08901 24.9883 6.80097 25.0028 12.8864 24.9996C16.617 24.9977 19.7144 24.9675 19.7692 24.9325C20.0582 24.7487 20.0371 24.1609 19.734 23.9527C19.6804 23.9158 16.6023 23.885 12.8937 23.8842C7.35071 23.8831 6.12163 23.9049 5.98617 24.0068Z" fill="url(#paint0_linear_128_40)"/>
<defs>
<linearGradient id="paint0_linear_128_40" x1="0.553097" y1="13.5118" x2="26.96" y2="13.7388" gradientUnits="userSpaceOnUse">
<stop stop-color="#55ADFF"/>
<stop offset="1" stop-color="#9543E4"/>
</linearGradient>
</defs>
</svg>
