<svg width="22" height="23" viewBox="0 0 22 23" fill="none" xmlns="http://www.w3.org/2000/svg">
<path fill-rule="evenodd" clip-rule="evenodd" d="M9.28168 0.104009C6.83128 0.539893 5.043 1.50006 3.23028 3.35316C1.63263 4.98651 0.741366 6.6272 0.225999 8.88397C-0.0753331 10.203 -0.0753331 12.5339 0.225999 13.8529C0.715998 15.9984 1.61989 17.7033 3.09677 19.2673C4.62418 20.8849 6.28664 21.8902 8.34431 22.4405C9.20887 22.6717 9.55241 22.7074 10.9331 22.7096C12.3295 22.7117 12.6474 22.6789 13.5218 22.443C15.0779 22.023 16.8302 21.1181 17.7372 20.2662C18.1425 19.8856 18.1347 19.2649 17.7194 18.8472C17.2641 18.3895 16.925 18.4401 15.9132 19.117C14.3471 20.1647 12.8928 20.6117 11.0285 20.6184C8.70346 20.6266 6.65072 19.8294 4.97132 18.2661C2.14697 15.6369 1.21596 11.2917 2.70588 7.693C3.78601 5.08431 6.07291 3.04656 8.74167 2.31462C9.88917 1.99997 12.0796 1.99997 13.2271 2.31462C16.2904 3.15468 18.6618 5.52164 19.6289 8.70449C19.8772 9.52184 19.9056 9.77856 19.9122 11.2652C19.9207 13.1677 19.8151 13.6954 19.0768 15.4375C18.5847 16.5988 18.5749 16.7937 18.9851 17.2732C19.179 17.4998 19.3184 17.5597 19.652 17.5597C20.2255 17.5597 20.4948 17.266 20.9982 16.0919C22.6852 12.1576 22.2246 7.89251 19.7445 4.48216C19.0665 3.54978 17.682 2.25111 16.7305 1.65475C15.7371 1.03226 14.2972 0.436834 13.2439 0.213161C12.1514 -0.0189806 10.2649 -0.0709233 9.28168 0.104009ZM6.49215 7.99578C4.98323 9.5207 4.87354 9.65763 4.87354 10.0163C4.87354 10.5336 5.02719 10.7893 5.44334 10.9642C5.95717 11.18 15.9089 11.18 16.4228 10.9642C17.3282 10.5837 17.1421 9.27875 16.1568 9.09886C15.9669 9.06427 14.0951 9.0495 11.9974 9.06623L8.18337 9.09659L8.47074 8.73516C8.6288 8.53637 8.92397 8.21357 9.1267 8.01788C9.42444 7.73028 9.4952 7.58571 9.4952 7.26445C9.4952 6.70114 9.13913 6.36005 8.55084 6.36005C8.11918 6.36005 8.07985 6.39134 6.49215 7.99578ZM5.1453 12.4994C4.77977 12.8401 4.76899 13.4549 5.12137 13.8668L5.36909 14.1566L9.55118 14.1858L13.7333 14.2151L13.052 14.9245C12.4794 15.521 12.3709 15.6908 12.3709 15.9914C12.3709 16.708 13.0721 17.1737 13.6729 16.8564C13.8324 16.7721 14.6445 16.0105 15.4777 15.164C16.948 13.6701 16.9926 13.612 16.9926 13.189C16.9926 12.8639 16.9285 12.6887 16.7404 12.4997L16.4884 12.2462H10.9527H5.41705L5.1453 12.4994Z" fill="#ffffff"/>
</svg>
