<svg width="20" height="21" viewBox="0 0 20 21" fill="none" xmlns="http://www.w3.org/2000/svg">
<path fill-rule="evenodd" clip-rule="evenodd" d="M8.43789 0.0961786C6.21025 0.499248 4.58455 1.38713 2.93662 3.10072C1.48421 4.61111 0.673969 6.12828 0.205454 8.21515C-0.0684846 9.43486 -0.0684846 11.5903 0.205454 12.81C0.650907 14.7939 1.47263 16.3705 2.81525 17.8168C4.2038 19.3126 5.71513 20.2422 7.58573 20.7511C8.3717 20.9649 8.68401 20.9979 9.93914 20.9999C11.2086 21.0018 11.4976 20.9716 12.2925 20.7534C13.7071 20.365 15.3002 19.5282 16.1247 18.7405C16.4932 18.3885 16.4861 17.8145 16.1085 17.4284C15.6946 17.005 15.3864 17.0518 14.4665 17.6778C13.0428 18.6466 11.7208 19.06 10.0259 19.0661C7.91224 19.0738 6.04611 18.3366 4.51938 16.8909C1.95179 14.4597 1.10542 10.4416 2.45989 7.11384C3.44183 4.70154 5.52083 2.81721 7.94697 2.14036C8.99016 1.8494 10.9815 1.8494 12.0247 2.14036C14.8094 2.91719 16.9653 5.10595 17.8444 8.04918C18.0702 8.805 18.096 9.04239 18.102 10.4171C18.1098 12.1764 18.0137 12.6644 17.3426 14.2753C16.8952 15.3492 16.8863 15.5294 17.2592 15.9728C17.4355 16.1824 17.5622 16.2378 17.8654 16.2378C18.3868 16.2378 18.6316 15.9662 19.0893 14.8804C20.6229 11.2423 20.2042 7.29833 17.9496 4.14473C17.3331 3.28254 16.0746 2.08164 15.2095 1.53017C14.3065 0.954551 12.9975 0.403947 12.0399 0.197113C11.0468 -0.0175517 9.33169 -0.0655839 8.43789 0.0961786ZM5.90196 7.39382C4.53021 8.80395 4.43049 8.93057 4.43049 9.26221C4.43049 9.74062 4.57017 9.97706 4.94849 10.1387C5.41561 10.3383 14.4627 10.3383 14.9298 10.1387C15.7529 9.78693 15.5837 8.58021 14.688 8.41386C14.5153 8.38187 12.8137 8.36822 10.9067 8.38369L7.86362 8.40833C7.69227 8.40972 7.59514 8.21255 7.70067 8.07754C7.84436 7.89372 8.1127 7.59522 8.297 7.41426C8.56767 7.14832 8.632 7.01463 8.632 6.71755C8.632 6.19665 8.3083 5.88124 7.77349 5.88124C7.38107 5.88124 7.34531 5.91017 5.90196 7.39382ZM4.67754 11.5584C4.34525 11.8734 4.33544 12.442 4.65579 12.8229C4.79868 12.9929 5.00891 13.0918 5.231 13.0933L8.68289 13.1179L11.5826 13.1385C11.9258 13.1409 12.1011 13.5514 11.8655 13.8009C11.3449 14.3525 11.2463 14.5096 11.2463 14.7875C11.2463 15.4502 11.8837 15.8808 12.4299 15.5874C12.5749 15.5094 13.3131 14.8052 14.0706 14.0224C15.4073 12.641 15.4478 12.5872 15.4478 12.1961C15.4478 11.8955 15.3895 11.7334 15.2186 11.5587C15.072 11.4088 14.8713 11.3243 14.6616 11.3243H9.95697H5.26497C5.04641 11.3243 4.83617 11.4081 4.67754 11.5584Z" fill="url(#paint0_linear_360_208)"/>
<defs>
<linearGradient id="paint0_linear_360_208" x1="0.76923" y1="1.0552e-05" x2="26.0479" y2="2.65643" gradientUnits="userSpaceOnUse">
<stop stop-color="#55ADFF"/>
<stop offset="1" stop-color="#A528DD"/>
</linearGradient>
</defs>
</svg>
