<svg width="22" height="22" viewBox="0 0 22 22" fill="#000" xmlns="http://www.w3.org/2000/svg">
<path d="M2.75 5.5H4.58333H19.25" stroke="#8B8892" stroke-width="1.83333" stroke-linecap="round" stroke-linejoin="round"/>
<path d="M7.3335 5.49992V3.66659C7.3335 3.18036 7.52665 2.71404 7.87047 2.37022C8.21428 2.02641 8.6806 1.83325 9.16683 1.83325H12.8335C13.3197 1.83325 13.786 2.02641 14.1299 2.37022C14.4737 2.71404 14.6668 3.18036 14.6668 3.66659V5.49992M17.4168 5.49992V18.3333C17.4168 18.8195 17.2237 19.2858 16.8799 19.6296C16.536 19.9734 16.0697 20.1666 15.5835 20.1666H6.41683C5.9306 20.1666 5.46428 19.9734 5.12047 19.6296C4.77665 19.2858 4.5835 18.8195 4.5835 18.3333V5.49992H17.4168Z" stroke="#8B8892" stroke-width="1.83333" stroke-linecap="round" stroke-linejoin="round"/>
<path d="M9.1665 10.0833V15.5833" stroke="#8B8892" stroke-width="1.83333" stroke-linecap="round" stroke-linejoin="round"/>
<path d="M12.8335 10.0833V15.5833" stroke="#8B8892" stroke-width="1.83333" stroke-linecap="round" stroke-linejoin="round"/>
</svg>
