<svg width="20" height="19" viewBox="0 0 20 19" fill="none" xmlns="http://www.w3.org/2000/svg">
<path fill-rule="evenodd" clip-rule="evenodd" d="M2.36217 1.93673V3.87346H5.16404H7.96591V5.12502V6.37659L7.89303 6.39098C7.85293 6.39889 7.53591 6.42243 7.18851 6.44334C4.34755 6.6141 1.73695 7.16547 0.661677 7.82175C0.383466 7.99155 0.142538 8.21939 0.055761 8.39473C-0.0354212 8.57898 -0.0131363 8.83123 0.110599 9.01528C0.679492 9.86157 3.51443 10.6159 7.01036 10.8513C7.31322 10.8717 7.65213 10.8965 7.76346 10.9064L7.96591 10.9245V14.9622V19H9.99038H12.0149V14.9622V10.9245L12.2173 10.9058C12.3287 10.8955 12.6675 10.8711 12.9704 10.8514C15.1538 10.7098 17.3973 10.3032 18.5946 9.83225C19.0051 9.67077 19.4857 9.40871 19.6676 9.24719C20.8473 8.19979 18.8184 7.13027 14.671 6.6133C14.0197 6.53213 13.1477 6.45456 12.5817 6.42741C12.3501 6.41632 12.1278 6.40033 12.0877 6.39191L12.0149 6.37659V5.12519V3.87383L14.8248 3.86531L17.6348 3.85677L17.6431 1.92838L17.6515 0H10.0068H2.36217V1.93673ZM7.97365 8.08919L7.9821 9.5L8.27363 9.52437C8.67561 9.558 11.1681 9.56525 11.6339 9.53413L12.0141 9.50875L12.0226 8.10191L12.031 6.69508L12.3226 6.705C13.8784 6.75782 15.9494 7.03234 17.1651 7.34689C17.8747 7.53048 18.516 7.79467 18.7849 8.01423C19.591 8.67241 18.4976 9.37621 15.9828 9.81786C13.1959 10.3073 9.08692 10.4076 5.79567 10.0665C2.98308 9.77508 1.0666 9.16688 0.950513 8.52893C0.80067 7.70555 3.33502 6.98368 7.31808 6.71525C7.54077 6.70025 7.77749 6.68583 7.84409 6.68319L7.9652 6.67838L7.97365 8.08919Z" fill="url(#paint0_linear_128_52)"/>
<defs>
<linearGradient id="paint0_linear_128_52" x1="0.76923" y1="9.54703e-06" x2="25.9868" y2="2.92896" gradientUnits="userSpaceOnUse">
<stop stop-color="#55ADFF"/>
<stop offset="1" stop-color="#A528DD"/>
</linearGradient>
</defs>
</svg>
